<svg width="24" height="25" viewBox="0 0 24 25" fill="none" xmlns="http://www.w3.org/2000/svg">
<path fill-rule="evenodd" clip-rule="evenodd" d="M6 1.00195C4.355 1.00195 3 2.35695 3 4.00195V20.002C3 21.647 4.355 23.002 6 23.002H20C20.2652 23.002 20.5196 22.8966 20.7071 22.7091C20.8946 22.5215 21 22.2672 21 22.002C21 21.7367 20.8946 21.4824 20.7071 21.2948C20.5196 21.1073 20.2652 21.002 20 21.002H6C5.434 21.002 5 20.568 5 20.002C5 19.436 5.434 19.002 6 19.002H20C20.2652 19.002 20.5196 18.8966 20.7071 18.7091C20.8946 18.5215 21 18.2672 21 18.002V2.00195C21 1.73674 20.8946 1.48238 20.7071 1.29485C20.5196 1.10731 20.2652 1.00195 20 1.00195H6ZM6 3.00195H19V17.002H6C5.65829 17.0062 5.31993 17.0698 5 17.19V4.00195C5 3.43595 5.434 3.00195 6 3.00195ZM8.29289 7.70906C8.48043 7.8966 8.73478 8.00195 9 8.00195H16C16.2652 8.00195 16.5196 7.8966 16.7071 7.70906C16.8946 7.52152 17 7.26717 17 7.00195C17 6.73674 16.8946 6.48238 16.7071 6.29485C16.5196 6.10731 16.2652 6.00195 16 6.00195H9C8.73478 6.00195 8.48043 6.10731 8.29289 6.29485C8.10536 6.48238 8 6.73674 8 7.00195C8 7.26717 8.10536 7.52152 8.29289 7.70906Z" fill="#4C4C4C"/>
</svg>
