<svg width="24" height="25" viewBox="0 0 24 25" fill="none" xmlns="http://www.w3.org/2000/svg">
<path d="M9 20.002H6C4.93913 20.002 3.92172 19.5806 3.17157 18.8304C2.42143 18.0803 2 17.0629 2 16.002V7.00201C2 5.94115 2.42143 4.92373 3.17157 4.17359C3.92172 3.42344 4.93913 3.00201 6 3.00201H17C18.0609 3.00201 19.0783 3.42344 19.8284 4.17359C20.5786 4.92373 21 5.94115 21 7.00201V10.002" stroke="#4C4C4C" stroke-width="2" stroke-linecap="round" stroke-linejoin="round"/>
<path d="M8 2.00201V4.00201" stroke="#4C4C4C" stroke-width="2" stroke-linecap="round" stroke-linejoin="round"/>
<path d="M15 2.00201V4.00201" stroke="#4C4C4C" stroke-width="2" stroke-linecap="round" stroke-linejoin="round"/>
<path d="M2 8.00201H21" stroke="#4C4C4C" stroke-width="2" stroke-linecap="round" stroke-linejoin="round"/>
<path d="M18.5 15.645L17 17.145" stroke="#4C4C4C" stroke-width="2" stroke-linecap="round" stroke-linejoin="round"/>
<path d="M17 22.002C19.7614 22.002 22 19.7634 22 17.002C22 14.2406 19.7614 12.002 17 12.002C14.2386 12.002 12 14.2406 12 17.002C12 19.7634 14.2386 22.002 17 22.002Z" stroke="#4C4C4C" stroke-width="2" stroke-linecap="round" stroke-linejoin="round"/>
</svg>
