<svg width="24" height="25" viewBox="0 0 24 25" fill="none" xmlns="http://www.w3.org/2000/svg">
<g clip-path="url(#clip0_2119_108465)">
<path d="M0 11.522C0 6.09135 0 3.37608 1.68707 1.68902C3.37413 0.00195312 6.0894 0.00195312 11.52 0.00195312H12.48C17.9106 0.00195312 20.6259 0.00195312 22.313 1.68902C24 3.37608 24 6.09135 24 11.522V12.482C24 17.9126 24 20.6278 22.313 22.3149C20.6259 24.002 17.9106 24.002 12.48 24.002H11.52C6.0894 24.002 3.37413 24.002 1.68707 22.3149C0 20.6278 0 17.9126 0 12.482V11.522Z" fill="#0077FF"/>
<path d="M12.7699 17.292C7.29992 17.292 4.17997 13.542 4.04997 7.302H6.78997C6.87997 11.882 8.89992 13.822 10.4999 14.222V7.302H13.08V11.252C14.66 11.082 16.3198 9.282 16.8798 7.302H19.4599C19.0299 9.742 17.2299 11.542 15.9499 12.282C17.2299 12.882 19.28 14.452 20.06 17.292H17.2199C16.6099 15.392 15.09 13.922 13.08 13.722V17.292H12.7699Z" fill="white"/>
</g>
<defs>
<clipPath id="clip0_2119_108465">
<rect width="24" height="24" fill="white" transform="translate(0 0.00195312)"/>
</clipPath>
</defs>
</svg>
