<svg width="40" height="29" viewBox="0 0 40 29" fill="none" xmlns="http://www.w3.org/2000/svg">
<path d="M39.8 25.398L36.5 28.598C36.4 28.698 36.2 28.798 36.1 28.798H23.3C23 28.798 22.7 28.498 22.7 28.198V25.798C22.7 25.498 22.4 25.198 22.1 25.198H21.1C20.8 25.198 20.5 24.898 20.5 24.598V0.798044C20.5 0.498044 20.8 0.198044 21.1 0.198044H24.2C24.5 0.198044 24.8 0.498044 24.8 0.798044V6.49804C24.8 6.79804 25.1 7.09805 25.4 7.09805H37.2C37.5 7.09805 37.8 7.39804 37.8 7.69804V9.99805C37.8 10.298 38.1 10.598 38.4 10.598H39.4C39.7 10.598 40 10.898 40 11.198V24.898C40 25.198 39.9 25.298 39.8 25.398ZM35.7 23.898V12.198C35.7 11.898 35.4 11.598 35.1 11.598H25.5C25.2 11.598 24.9 11.898 24.9 12.198V23.998C24.9 24.298 25.2 24.598 25.5 24.598H35.1C35.4 24.498 35.7 24.298 35.7 23.898Z" fill="#141416"/>
<path d="M16.1 4.49804H12.6C12.4 4.49804 12.2 4.29804 12.2 4.09804V0.598044C12.2 0.398044 12.4 0.198044 12.6 0.198044H16.1C16.3 0.198044 16.5 0.398044 16.5 0.598044V4.09804C16.5 4.29804 16.3 4.49804 16.1 4.49804ZM16.1 28.898H12.6C12.4 28.898 12.2 28.698 12.2 28.498V7.59805C12.2 7.39805 12.4 7.19804 12.6 7.19804H16.1C16.3 7.19804 16.5 7.39805 16.5 7.59805V28.498C16.5 28.698 16.3 28.898 16.1 28.898Z" fill="#141416"/>
<path d="M8.49998 25.098V28.198C8.49998 28.498 8.19998 28.798 7.89998 28.798H2.99998C2.69998 28.798 2.39998 28.498 2.39998 28.198V25.898C2.39998 25.598 2.09999 25.298 1.79999 25.298H0.899986C0.599986 25.298 0.299988 24.998 0.299988 24.698V0.798044C0.299988 0.498044 0.599986 0.198044 0.899986 0.198044H4.09998C4.39998 0.198044 4.69998 0.498044 4.69998 0.798044L4.59998 23.898C4.59998 24.198 4.89998 24.498 5.19998 24.498H7.99998C8.19998 24.498 8.49998 24.798 8.49998 25.098Z" fill="#141416"/>
</svg>
