<svg width="40" height="40" viewBox="0 0 40 40" fill="none" xmlns="http://www.w3.org/2000/svg">
<rect width="40" height="40" rx="8" fill="#EEEEEF"/>
<path fill-rule="evenodd" clip-rule="evenodd" d="M10 20C10 19.4696 10.2107 18.9609 10.5858 18.5858C10.9609 18.2107 11.4696 18 12 18C12.5304 18 13.0391 18.2107 13.4142 18.5858C13.7893 18.9609 14 19.4696 14 20C14 20.5304 13.7893 21.0391 13.4142 21.4142C13.0391 21.7893 12.5304 22 12 22C11.4696 22 10.9609 21.7893 10.5858 21.4142C10.2107 21.0391 10 20.5304 10 20Z" fill="#4C4C4C"/>
<path fill-rule="evenodd" clip-rule="evenodd" d="M18 20C18 19.4696 18.2107 18.9609 18.5858 18.5858C18.9609 18.2107 19.4696 18 20 18C20.5304 18 21.0391 18.2107 21.4142 18.5858C21.7893 18.9609 22 19.4696 22 20C22 20.5304 21.7893 21.0391 21.4142 21.4142C21.0391 21.7893 20.5304 22 20 22C19.4696 22 18.9609 21.7893 18.5858 21.4142C18.2107 21.0391 18 20.5304 18 20Z" fill="#4C4C4C"/>
<path fill-rule="evenodd" clip-rule="evenodd" d="M26 20C26 19.4696 26.2107 18.9609 26.5858 18.5858C26.9609 18.2107 27.4696 18 28 18C28.5304 18 29.0391 18.2107 29.4142 18.5858C29.7893 18.9609 30 19.4696 30 20C30 20.5304 29.7893 21.0391 29.4142 21.4142C29.0391 21.7893 28.5304 22 28 22C27.4696 22 26.9609 21.7893 26.5858 21.4142C26.2107 21.0391 26 20.5304 26 20Z" fill="#4C4C4C"/>
</svg>
