<svg width="20" height="20" viewBox="0 0 20 20" fill="none" xmlns="http://www.w3.org/2000/svg">
<g clip-path="url(#clip0_114_214500)">
<path d="M8.4432 19.7276C3.79156 18.8952 0.266113 14.8801 0.266113 10.0326C0.266113 4.6465 4.67292 0.239685 10.059 0.239685C15.4451 0.239685 19.8519 4.6465 19.8519 10.0326C19.8519 14.8801 16.3265 18.8952 11.6749 19.7276L11.1362 19.2869H8.98181L8.4432 19.7276Z" fill="url(#paint0_linear_114_214500)"/>
<path d="M13.8782 12.7746L14.3189 10.0326H11.7238V8.12296C11.7238 7.33953 12.0176 6.75195 13.1927 6.75195H14.4658V4.25476C13.7803 4.15682 12.9969 4.0589 12.3114 4.0589C10.059 4.0589 8.49211 5.42991 8.49211 7.87814V10.0326H6.04388V12.7746H8.49211V19.6786C9.03072 19.7765 9.56933 19.8255 10.1079 19.8255C10.6466 19.8255 11.1852 19.7765 11.7238 19.6786V12.7746H13.8782Z" fill="white"/>
</g>
<defs>
<linearGradient id="paint0_linear_114_214500" x1="10.0596" y1="19.144" x2="10.0596" y2="0.235895" gradientUnits="userSpaceOnUse">
<stop stop-color="#0062E0"/>
<stop offset="1" stop-color="#19AFFF"/>
</linearGradient>
<clipPath id="clip0_114_214500">
<rect width="20" height="20" fill="white"/>
</clipPath>
</defs>
</svg>
