<svg width="24" height="24" viewBox="0 0 24 24" fill="none" xmlns="http://www.w3.org/2000/svg">
<rect width="24" height="24" rx="12" fill="#92929D"/>
<path d="M13.0293 10.9707C12.4833 10.4248 11.7428 10.1182 10.9707 10.1182C10.1986 10.1182 9.45807 10.4248 8.912 10.9707L6.85267 13.0293C6.30659 13.5754 5.9998 14.3161 5.9998 15.0883C5.9998 15.8606 6.30659 16.6013 6.85267 17.1473C7.39875 17.6934 8.13939 18.0002 8.91167 18.0002C9.68394 18.0002 10.4246 17.6934 10.9707 17.1473L12 16.118" stroke="#FCFCFC" stroke-width="1.25" stroke-linecap="round" stroke-linejoin="round"/>
<path d="M10.9707 13.0293C11.5167 13.5752 12.2572 13.8818 13.0293 13.8818C13.8014 13.8818 14.5419 13.5752 15.088 13.0293L17.1473 10.9707C17.6934 10.4246 18.0002 9.68394 18.0002 8.91167C18.0002 8.13939 17.6934 7.39875 17.1473 6.85267C16.6013 6.30659 15.8606 5.9998 15.0883 5.9998C14.3161 5.9998 13.5754 6.30659 13.0293 6.85267L12 7.882" stroke="#FCFCFC" stroke-width="1.25" stroke-linecap="round" stroke-linejoin="round"/>
</svg>
