<svg width="24" height="24" viewBox="0 0 24 24" fill="none" xmlns="http://www.w3.org/2000/svg">
<path fill-rule="evenodd" clip-rule="evenodd" d="M0 12C0 5.37258 5.37258 0 12 0C18.6274 0 24 5.37258 24 12C24 18.6274 18.6274 24 12 24C5.37258 24 0 18.6274 0 12ZM11.9918 12.1927C13.7614 12.1927 15.1998 10.804 15.1998 9.09679C15.1998 7.38905 13.7614 6 11.9918 6C10.2227 6 8.78389 7.38905 8.78389 9.09679C8.78389 10.804 10.2227 12.1927 11.9918 12.1927ZM13.298 14.7202C13.951 14.5766 14.5807 14.3272 15.1608 13.9755C15.5998 13.7083 15.732 13.1482 15.4554 12.7245C15.179 12.2998 14.5992 12.172 14.1594 12.4392C12.8454 13.2368 11.1536 13.2366 9.8403 12.4392C9.40056 12.172 8.8205 12.2998 8.54468 12.7245C8.26809 13.1486 8.39995 13.7083 8.83893 13.9755C9.41898 14.3268 10.0488 14.5766 10.7017 14.7202L8.90822 16.4514C8.54161 16.8057 8.54161 17.38 8.9086 17.7343C9.09229 17.9112 9.33261 17.9998 9.57292 17.9998C9.81362 17.9998 10.0543 17.9112 10.238 17.7343L11.9997 16.0331L13.7629 17.7343C14.1295 18.0886 14.7243 18.0886 15.0913 17.7343C15.4587 17.38 15.4587 16.8053 15.0913 16.4514L13.298 14.7202Z" fill="#92929D"/>
<path fill-rule="evenodd" clip-rule="evenodd" d="M11.9918 7.81483C12.7243 7.81483 13.3201 8.38976 13.3201 9.09679C13.3201 9.80327 12.7243 10.3786 11.9918 10.3786C11.26 10.3786 10.6636 9.80327 10.6636 9.09679C10.6636 8.38976 11.26 7.81483 11.9918 7.81483Z" fill="#92929D"/>
</svg>
