<svg width="16" height="16" viewBox="0 0 16 16" fill="none" xmlns="http://www.w3.org/2000/svg">
<path d="M8 16C12.4183 16 16 12.4183 16 8C16 3.58172 12.4183 0 8 0C3.58172 0 0 3.58172 0 8C0 12.4183 3.58172 16 8 16Z" fill="url(#paint0_linear_6_6)"/>
<path d="M6.5334 11.6666C6.2742 11.6666 6.31827 11.5687 6.22887 11.3219L5.46674 8.81372L11.3334 5.33325" fill="#C8DAEA"/>
<path d="M6.53326 11.6667C6.73326 11.6667 6.8216 11.5753 6.93326 11.4667L7.99993 10.4295L6.6694 9.6272" fill="#A9C9DD"/>
<path d="M6.66932 9.62735L9.89332 12.0093C10.2613 12.2123 10.5267 12.1071 10.6184 11.6677L11.9307 5.48355C12.0651 4.94488 11.7254 4.70048 11.3734 4.86028L3.66739 7.83168C3.14139 8.04268 3.14452 8.33615 3.57152 8.46688L5.54905 9.08415L10.1273 6.19581C10.3434 6.06475 10.5418 6.13515 10.379 6.27968" fill="url(#paint1_linear_6_6)"/>
<defs>
<linearGradient id="paint0_linear_6_6" x1="10.672" y1="2.672" x2="6.672" y2="12" gradientUnits="userSpaceOnUse">
<stop stop-color="#37AEE2"/>
<stop offset="1" stop-color="#1E96C8"/>
</linearGradient>
<linearGradient id="paint1_linear_6_6" x1="9.00291" y1="8.00065" x2="10.2514" y2="10.8452" gradientUnits="userSpaceOnUse">
<stop stop-color="#EFF7FC"/>
<stop offset="1" stop-color="white"/>
</linearGradient>
</defs>
</svg>
