<svg width="20" height="20" viewBox="0 0 20 20" fill="none" xmlns="http://www.w3.org/2000/svg">
<g clip-path="url(#clip0_114_214494)">
<path d="M0 9.6C0 5.0745 0 2.81177 1.40589 1.40589C2.81177 0 5.0745 0 9.6 0H10.4C14.9255 0 17.1882 0 18.5941 1.40589C20 2.81177 20 5.0745 20 9.6V10.4C20 14.9255 20 17.1882 18.5941 18.5941C17.1882 20 14.9255 20 10.4 20H9.6C5.0745 20 2.81177 20 1.40589 18.5941C0 17.1882 0 14.9255 0 10.4V9.6Z" fill="#0077FF"/>
<path d="M10.6416 14.4084C6.08329 14.4084 3.48333 11.2834 3.375 6.08337H5.65833C5.73333 9.90004 7.41662 11.5167 8.74996 11.85V6.08337H10.9V9.37504C12.2167 9.23337 13.5999 7.73337 14.0665 6.08337H16.2166C15.8582 8.11671 14.3582 9.61671 13.2916 10.2334C14.3582 10.7334 16.0667 12.0417 16.7167 14.4084H14.3499C13.8416 12.825 12.575 11.6 10.9 11.4334V14.4084H10.6416Z" fill="white"/>
</g>
<defs>
<clipPath id="clip0_114_214494">
<rect width="20" height="20" fill="white"/>
</clipPath>
</defs>
</svg>
