<svg width="11" height="14" viewBox="0 0 11 14" fill="none" xmlns="http://www.w3.org/2000/svg">
<path fill-rule="evenodd" clip-rule="evenodd" d="M0.822644 0.990754C0.706798 1.197 0.647246 1.43009 0.649976 1.66663V12.3333C0.646953 12.5701 0.706363 12.8035 0.822225 13.0101C0.938087 13.2167 1.10631 13.3891 1.30998 13.51C1.50758 13.6236 1.73381 13.6778 1.96148 13.666C2.18915 13.6542 2.40855 13.5768 2.59331 13.4433L10.0933 8.10996C10.4416 7.86163 10.65 7.44663 10.65 6.99996C10.6518 6.78429 10.6023 6.57128 10.5055 6.37855C10.4087 6.18582 10.2674 6.01891 10.0933 5.89163L2.59331 0.558294C2.40855 0.424744 2.18915 0.347406 1.96148 0.335578C1.73381 0.323752 1.50758 0.37794 1.30998 0.491628C1.10656 0.612374 0.938493 0.784511 0.822644 0.990754Z" fill="#92929D"/>
</svg>
