<svg width="20" height="20" viewBox="0 0 20 20" fill="none" xmlns="http://www.w3.org/2000/svg">
<path fill-rule="evenodd" clip-rule="evenodd" d="M1.66626 10C1.66626 9.55798 1.84185 9.13406 2.15442 8.8215C2.46698 8.50894 2.8909 8.33334 3.33293 8.33334C3.77495 8.33334 4.19888 8.50894 4.51144 8.8215C4.824 9.13406 4.99959 9.55798 4.99959 10C4.99959 10.442 4.824 10.866 4.51144 11.1785C4.19888 11.4911 3.77495 11.6667 3.33293 11.6667C2.8909 11.6667 2.46698 11.4911 2.15442 11.1785C1.84185 10.866 1.66626 10.442 1.66626 10Z" fill="#9F9FA9"/>
<path fill-rule="evenodd" clip-rule="evenodd" d="M8.33276 10C8.33276 9.55798 8.50836 9.13406 8.82092 8.8215C9.13348 8.50894 9.5574 8.33334 9.99943 8.33334C10.4415 8.33334 10.8654 8.50894 11.1779 8.8215C11.4905 9.13406 11.6661 9.55798 11.6661 10C11.6661 10.442 11.4905 10.866 11.1779 11.1785C10.8654 11.4911 10.4415 11.6667 9.99943 11.6667C9.5574 11.6667 9.13348 11.4911 8.82092 11.1785C8.50836 10.866 8.33276 10.442 8.33276 10Z" fill="#9F9FA9"/>
<path fill-rule="evenodd" clip-rule="evenodd" d="M14.9995 10C14.9995 9.55798 15.1751 9.13406 15.4877 8.8215C15.8002 8.50894 16.2242 8.33334 16.6662 8.33334C17.1082 8.33334 17.5321 8.50894 17.8447 8.8215C18.1572 9.13406 18.3328 9.55798 18.3328 10C18.3328 10.442 18.1572 10.866 17.8447 11.1785C17.5321 11.4911 17.1082 11.6667 16.6662 11.6667C16.2242 11.6667 15.8002 11.4911 15.4877 11.1785C15.1751 10.866 14.9995 10.442 14.9995 10Z" fill="#9F9FA9"/>
</svg>
