<svg width="16" height="16" viewBox="0 0 16 16" fill="none" xmlns="http://www.w3.org/2000/svg">
<path d="M7.99925 1.30176C7.09331 1.30176 6.30738 1.73642 5.68671 2.38509C4.78391 2.36509 3.90538 2.60376 3.27005 3.2391C2.63478 3.87443 2.39558 4.7531 2.41591 5.65576C1.76705 6.27643 1.33258 7.06242 1.33258 7.96842C1.33258 8.87442 1.76705 9.66042 2.41591 10.2811C2.39558 11.1838 2.63478 12.0624 3.27005 12.6978C3.90545 13.3331 4.78391 13.5724 5.68671 13.5518C6.30738 14.2004 7.09331 14.6351 7.99925 14.6351C8.90518 14.6351 9.69111 14.2004 10.3118 13.5518C11.2146 13.5718 12.0931 13.3331 12.7284 12.6978C13.3637 12.0624 13.6029 11.1838 13.5826 10.2811C14.2314 9.66042 14.6659 8.87442 14.6659 7.96842C14.6659 7.06242 14.2314 6.27643 13.5826 5.65576C13.6029 4.7531 13.3637 3.87443 12.7284 3.2391C12.093 2.60376 11.2146 2.36442 10.3118 2.38509C9.69111 1.73642 8.90518 1.30176 7.99925 1.30176ZM9.99925 5.96842C10.1698 5.96842 10.3482 6.02576 10.4784 6.15576C10.7388 6.41643 10.7388 6.85375 10.4784 7.11442L7.81178 9.78109C7.55138 10.0411 7.11378 10.0411 6.85338 9.78109L5.52005 8.44775C5.25971 8.18709 5.25971 7.74976 5.52005 7.4891C5.78045 7.2291 6.21805 7.2291 6.47845 7.4891L7.33258 8.3431L9.52005 6.15576C9.65025 6.02576 9.82865 5.96842 9.99925 5.96842Z" fill="#378FF6"/>
</svg>
