<svg width="24" height="24" viewBox="0 0 24 24" fill="none" xmlns="http://www.w3.org/2000/svg">
<path fill-rule="evenodd" clip-rule="evenodd" d="M0 12C0 5.37258 5.37258 0 12 0C18.6274 0 24 5.37258 24 12C24 18.6274 18.6274 24 12 24C5.37258 24 0 18.6274 0 12ZM12.6276 15.938C12.6276 15.938 12.8586 15.9128 12.977 15.788C13.0853 15.6737 13.0815 15.458 13.0815 15.458C13.0815 15.458 13.0671 14.4508 13.5435 14.3021C14.0131 14.1559 14.616 15.2761 15.2558 15.7069C15.7391 16.0326 16.106 15.9613 16.106 15.9613L17.8157 15.938C17.8157 15.938 18.7097 15.8839 18.2859 15.1938C18.2508 15.1373 18.0386 14.6831 17.015 13.7503C15.9426 12.7738 16.0866 12.9317 17.3775 11.2424C18.1638 10.2137 18.4781 9.58563 18.3798 9.31708C18.2865 9.06021 17.708 9.12842 17.708 9.12842L15.7835 9.14009C15.7835 9.14009 15.6408 9.12104 15.535 9.18311C15.4317 9.24395 15.3647 9.3859 15.3647 9.3859C15.3647 9.3859 15.0605 10.1817 14.6542 10.8589C13.7971 12.2871 13.4546 12.3627 13.3144 12.2742C12.9882 12.0671 13.0696 11.4433 13.0696 11.0003C13.0696 9.61574 13.2837 9.0387 12.6533 8.88937C12.4442 8.83959 12.2902 8.80702 11.7549 8.80149C11.0681 8.79473 10.4872 8.80395 10.1579 8.96188C9.93876 9.06697 9.76972 9.30171 9.87302 9.31523C10.0001 9.33183 10.2881 9.39143 10.4408 9.59546C10.6381 9.85909 10.6312 10.4503 10.6312 10.4503C10.6312 10.4503 10.7445 12.08 10.3663 12.2822C10.1072 12.4211 9.75157 12.1378 8.98716 10.8417C8.59588 10.178 8.30039 9.44428 8.30039 9.44428C8.30039 9.44428 8.24342 9.30725 8.14137 9.2335C8.01804 9.14439 7.84587 9.11674 7.84587 9.11674L6.01719 9.12842C6.01719 9.12842 5.74235 9.13579 5.64156 9.25317C5.55203 9.35702 5.63467 9.57272 5.63467 9.57272C5.63467 9.57272 7.06644 12.8611 8.68791 14.5184C10.1748 16.0375 11.8626 15.938 11.8626 15.938H12.6276Z" fill="#9F9FA9"/>
</svg>
