<svg width="24" height="24" viewBox="0 0 24 24" fill="none" xmlns="http://www.w3.org/2000/svg">
<g clip-path="url(#clip0_2174_148883)">
<path fill-rule="evenodd" clip-rule="evenodd" d="M23.9994 12.1284C18.6856 12.2913 16.26 12.4285 14.3143 14.3141C12.4287 16.2597 12.3001 18.6853 12.1287 23.9991C18.654 23.9306 23.9309 18.6538 23.9994 12.1284ZM11.8715 23.9991C11.7086 18.6853 11.5714 16.2597 9.68577 14.3141C7.74014 12.4285 5.31455 12.2998 0.000732443 12.1284C0.0692437 18.6538 5.3461 23.9306 11.8715 23.9991ZM23.9994 11.8712C23.9309 5.34585 18.654 0.068999 12.1286 0.000488281C12.2915 5.3143 12.4287 7.7399 14.3143 9.68553C16.26 11.5712 18.6856 11.6998 23.9994 11.8712ZM11.8715 0.000488283C5.34609 0.068999 0.0692426 5.34585 0.000732422 11.8712C5.31455 11.7084 7.74014 11.5712 9.68577 9.68553C11.5714 7.7399 11.7 5.3143 11.8715 0.000488283Z" fill="#9F9FA9"/>
</g>
<defs>
<clipPath id="clip0_2174_148883">
<rect width="24" height="24" fill="white"/>
</clipPath>
</defs>
</svg>
