<svg width="149" height="16" viewBox="0 0 149 16" fill="none" xmlns="http://www.w3.org/2000/svg">
<g clip-path="url(#clip0_2148_145988)">
<path d="M107.483 11.2985L108.941 12.7326C108.985 12.7774 109.074 12.8222 109.118 12.8222H114.772C114.904 12.8222 115.037 12.6878 115.037 12.5533V11.4778C115.037 11.3433 115.169 11.2089 115.302 11.2089H115.743C115.876 11.2089 116.008 11.0744 116.008 10.94V0.273301C116.008 0.138848 115.876 0.00439453 115.743 0.00439453H114.374C114.242 0.00439453 114.11 0.138848 114.11 0.273301V2.82792C114.11 2.96237 113.976 3.09682 113.844 3.09682H108.632C108.5 3.09682 108.367 3.23128 108.367 3.36573V4.39654C108.367 4.531 108.234 4.66545 108.101 4.66545H107.66C107.527 4.66545 107.395 4.7999 107.395 4.93436V11.0744C107.395 11.2089 107.439 11.2537 107.483 11.2985ZM109.294 10.6262V5.38253C109.294 5.24808 109.426 5.11363 109.559 5.11363H113.799C113.932 5.11363 114.065 5.24808 114.065 5.38253V10.671C114.065 10.8055 113.932 10.94 113.799 10.94H109.559C109.426 10.8951 109.294 10.8055 109.294 10.6262Z" fill="#FCFCFC"/>
<path d="M23.1906 11.3389L21.8213 12.7283C21.733 12.818 21.6004 12.8628 21.512 12.8628H16.8739C16.7414 12.8628 16.6088 12.9972 16.6088 13.1317V15.7311C16.6088 15.8655 16.4764 16 16.3439 16H14.9744C14.842 16 14.7095 15.8655 14.7095 15.7311V5.10928C14.7095 4.97484 14.7536 4.8852 14.842 4.79558L15.5929 4.03367L16.2997 3.31658C16.388 3.22694 16.5205 3.18213 16.6088 3.18213H21.4679C21.6004 3.18213 21.733 3.31658 21.733 3.45103V4.52666C21.733 4.66112 21.8654 4.79558 21.998 4.79558H23.0581C23.1906 4.79558 23.3232 4.93002 23.3232 5.06448V11.0252C23.3232 11.1148 23.2789 11.2493 23.1906 11.3389ZM21.3796 10.4426V5.51268C21.3796 5.24378 21.1587 5.06448 20.9378 5.06448H17.0506C16.7856 5.06448 16.6088 5.28858 16.6088 5.51268V10.4426C16.6088 10.7116 16.8298 10.8908 17.0506 10.8908H20.9378C21.2028 10.9356 21.3796 10.7116 21.3796 10.4426Z" fill="#FCFCFC"/>
<path d="M40.3518 11.2708H39.9531C39.8203 11.2708 39.6874 11.4056 39.6874 11.5404V12.6189C39.6874 12.7537 39.5545 12.8885 39.4216 12.8885H33.221C33.0881 12.8885 32.9552 12.7537 32.9552 12.6189V11.5404C32.9552 11.4056 32.8224 11.2708 32.6894 11.2708H32.2909C32.1581 11.2708 32.0251 11.136 32.0251 11.0012V5.06948C32.0251 4.93467 32.1581 4.79987 32.2909 4.79987H32.6894C32.8224 4.79987 32.9552 4.66505 32.9552 4.53024V3.45174C32.9552 3.31694 33.0881 3.18213 33.221 3.18213H39.4216C39.5545 3.18213 39.6874 3.31694 39.6874 3.45174V4.53024C39.6874 4.66505 39.8203 4.79987 39.9531 4.79987H40.3518C40.4846 4.79987 40.6175 4.93467 40.6175 5.06948V11.0012C40.6175 11.1809 40.4846 11.2708 40.3518 11.2708ZM38.713 10.5068V5.56378C38.713 5.29418 38.4915 5.11443 38.2701 5.11443H34.3726C34.1069 5.11443 33.9296 5.33913 33.9296 5.56378V10.5068C33.9296 10.7765 34.1511 10.9563 34.3726 10.9563H38.2701C38.4915 10.9563 38.713 10.7315 38.713 10.5068Z" fill="#FCFCFC"/>
<path d="M50.7541 14.2344L49.1638 15.8479C49.1196 15.8927 49.0313 15.9376 48.9872 15.9376H43.4656C43.3332 15.9376 43.2007 15.8031 43.2007 15.6686V14.2793C43.2007 14.1448 43.3332 14.0103 43.4656 14.0103H48.6779C48.8104 14.0103 48.9429 13.8759 48.9429 13.7414V13.0692C48.9429 12.9348 48.8104 12.8003 48.6779 12.8003H43.3773C43.289 12.8003 43.2007 12.7555 43.1565 12.6659L42.273 11.2317C42.2289 11.1869 42.2288 11.142 42.2288 11.0972V4.95718C42.2288 4.82272 42.3614 4.68827 42.4939 4.68827H42.8914C43.0239 4.68827 43.1565 4.55382 43.1565 4.41936V3.34373C43.1565 3.20928 43.289 3.07483 43.4215 3.07483H48.9429C49.0313 3.07483 49.0755 3.11965 49.1197 3.16447L50.7099 4.59863C50.7541 4.64345 50.7982 4.73309 50.7982 4.82272V14.0103C50.8424 14.1 50.7982 14.1896 50.7541 14.2344ZM49.0755 10.6042V5.31572C49.0755 5.18127 48.9429 5.04682 48.8104 5.04682H44.5698C44.4373 5.04682 44.3048 5.18127 44.3048 5.31572V10.6042C44.3048 10.7387 44.4373 10.8731 44.5698 10.8731H48.8104C48.9872 10.8731 49.0755 10.7387 49.0755 10.6042Z" fill="#FCFCFC"/>
<path d="M26.2358 3.13727H30.3358C30.5121 3.13727 30.6885 3.31618 30.6885 3.4951V4.837C30.6885 4.97119 30.5562 5.10536 30.424 5.10536H27.1616C27.0293 5.10536 26.8972 5.23956 26.8972 5.37376V12.5753C26.8972 12.7095 26.7648 12.8437 26.6326 12.8437H25.2659C25.1336 12.8437 25.0014 12.7095 25.0014 12.5753V5.01591C25.0014 4.88173 25.1336 4.74754 25.2659 4.74754H25.7068C25.839 4.74754 25.9713 4.61335 25.9713 4.47916V3.40564C25.9713 3.27145 26.1035 3.13727 26.2358 3.13727Z" fill="#FCFCFC"/>
<path d="M70.0141 11.2941L68.5565 12.7283C68.5125 12.7731 68.4239 12.8179 68.3799 12.8179H62.7258C62.5933 12.8179 62.4607 12.6835 62.4607 12.549V11.4733C62.4607 11.3389 62.3282 11.2044 62.1956 11.2044H61.7539C61.6213 11.2044 61.4888 11.07 61.4888 10.9355V0.268907C61.4888 0.134454 61.6213 0 61.7539 0H63.1235C63.2556 0 63.3881 0.134454 63.3881 0.268907V2.82352C63.3881 2.95797 63.5207 3.09243 63.6532 3.09243H68.8656C68.9982 3.09243 69.1307 3.22688 69.1307 3.36134V4.39214C69.1307 4.5266 69.2633 4.66106 69.3959 4.66106H69.8376C69.9701 4.66106 70.1027 4.7955 70.1027 4.92996V11.07C70.1027 11.2044 70.0587 11.2492 70.0141 11.2941ZM68.2033 10.6219V5.37815C68.2033 5.2437 68.0708 5.10925 67.9382 5.10925H63.6978C63.5652 5.10925 63.4327 5.2437 63.4327 5.37815V10.6666C63.4327 10.8011 63.5652 10.9355 63.6978 10.9355H67.9382C68.0708 10.8907 68.2033 10.8012 68.2033 10.6219Z" fill="#FCFCFC"/>
<path d="M59.5448 1.92716H57.9992C57.9106 1.92716 57.8221 1.83753 57.8221 1.74789V0.179271C57.8221 0.0896355 57.9106 0 57.9992 0H59.5448C59.6334 0 59.7219 0.0896355 59.7219 0.179271V1.74789C59.7219 1.83753 59.6334 1.92716 59.5448 1.92716ZM59.5448 12.8627H57.9992C57.9106 12.8627 57.8221 12.7731 57.8221 12.6835V3.31652C57.8221 3.22688 57.9106 3.13724 57.9992 3.13724H59.5448C59.6334 3.13724 59.7219 3.22688 59.7219 3.31652V12.6835C59.7219 12.7731 59.6334 12.8627 59.5448 12.8627Z" fill="#FCFCFC"/>
<path d="M56.1878 11.1596V12.549C56.1878 12.6835 56.0553 12.8179 55.9232 12.8179H53.7588C53.6262 12.8179 53.4936 12.6835 53.4936 12.549V11.5182C53.4936 11.3837 53.3611 11.2492 53.2285 11.2492H52.8309C52.6984 11.2492 52.5659 11.1148 52.5659 10.9803V0.268907C52.5659 0.134454 52.6984 0 52.8309 0H54.2445C54.377 0 54.5096 0.134454 54.5096 0.268907L54.4651 10.6219C54.4651 10.7563 54.5976 10.8907 54.7302 10.8907H55.9673C56.0553 10.8907 56.1878 11.0252 56.1878 11.1596Z" fill="#FCFCFC"/>
<path d="M10.5131 8.42583H11.2641C11.3082 8.42583 11.3082 8.38098 11.3082 8.38098V7.70873C11.3082 7.66393 11.3524 7.66393 11.3524 7.66393H12.0592C12.1033 7.66393 12.1033 7.61908 12.1033 7.61908V6.85718C12.1033 6.81238 12.0592 6.81238 12.0592 6.81238H11.3966C11.3524 6.81238 11.3524 6.76758 11.3524 6.76758V4.25776C11.3524 4.21294 11.3082 4.21294 11.3082 4.21294H10.4689C10.4248 4.21294 10.4248 4.25776 10.4248 4.25776V5.73673C10.4248 5.78158 10.3806 5.78158 10.3806 5.78158H9.67386C9.62969 5.78158 9.62969 5.73673 9.62969 5.73673V4.1233C9.62969 4.07848 9.67386 4.07848 9.67386 4.07848H10.2481C10.2923 4.07848 10.2923 4.03367 10.2923 4.03367V3.27176C10.2923 3.22694 10.2481 3.22694 10.2481 3.22694H8.79042C8.74625 3.22694 8.74625 3.27176 8.74625 3.27176V3.94404C8.74625 3.98886 8.70202 3.98886 8.70202 3.98886H7.95114C7.90692 3.98886 7.90692 4.03367 7.90692 4.03367V5.73673C7.90692 5.78158 7.86275 5.78158 7.86275 5.78158H7.11181C7.06764 5.78158 7.06764 5.73673 7.06764 5.73673V4.1233C7.06764 4.07848 7.11181 4.07848 7.11181 4.07848H7.73024C7.77441 4.07848 7.77441 4.03367 7.77441 4.03367V3.22694C7.77441 3.18213 7.73024 3.18213 7.73024 3.18213H6.22836C6.18419 3.18213 6.18419 3.22694 6.18419 3.22694V3.89922C6.18419 3.94404 6.14002 3.94404 6.14002 3.94404H5.38908C5.34491 3.94404 5.34491 3.98886 5.34491 3.98886V5.73673C5.34491 5.78158 5.30074 5.78158 5.30074 5.78158H3.53383C3.48965 5.78158 3.48965 5.82638 3.48965 5.82638V6.54348C3.44548 6.58828 3.44548 6.63308 3.40131 6.63308H2.65037C2.6062 6.63308 2.6062 6.67793 2.6062 6.67793V7.48463C2.6062 7.52948 2.56203 7.52948 2.56203 7.52948H1.81109C1.76692 7.52948 1.76692 7.57428 1.76692 7.57428V8.42583C1.76692 8.47063 1.72274 8.47063 1.72274 8.47063H0.927628C0.883453 8.47063 0.883453 8.51548 0.883453 8.51548V9.23253C0.883453 9.32218 0.839284 9.32218 0.839284 9.32218H0.0441728C7.90133e-09 9.32218 0 9.36698 0 9.36698V11.8768C0 11.9216 0.0441728 11.9216 0.0441728 11.9216H0.795109C0.839284 11.9216 0.839284 11.9664 0.839284 11.9664V12.5939C0.839284 12.6387 0.883453 12.6387 0.883453 12.6387H5.0357C5.07987 12.6387 5.07987 12.5939 5.07987 12.5939V12.0112C5.07987 11.9664 5.12405 11.9664 5.12405 11.9664H5.91917C5.96334 11.9664 5.96334 12.0112 5.96334 12.0112V12.6835C5.96334 12.7283 6.00751 12.7283 6.00751 12.7283H7.55356C7.59773 12.7283 7.59773 12.6835 7.59773 12.6835V11.1148C7.59773 11.07 7.55356 11.07 7.55356 11.07H6.00751C5.96334 11.07 5.96334 11.0252 5.96334 11.0252V9.41178C5.96334 9.36698 6.00751 9.36698 6.00751 9.36698H6.71428C6.75845 9.36698 6.75845 9.32218 6.75845 9.32218V7.70873C6.75845 7.66393 6.80262 7.66393 6.80262 7.66393H10.2923C10.3365 7.66393 10.3365 7.70873 10.3365 7.70873V8.38098C10.4248 8.38098 10.4689 8.42583 10.5131 8.42583Z" fill="#FCFCFC"/>
<path d="M9.54133 11.7423C9.54133 11.8768 9.62967 11.9664 9.76223 11.9664H10.3365C10.3806 11.9664 10.3806 12.0112 10.3806 12.0112V12.7284C10.3806 12.7732 10.3365 12.7732 10.3365 12.7732H8.79039C8.74622 12.7732 8.74622 12.7284 8.74622 12.7284V11.2493C8.74622 11.2045 8.70205 11.2045 8.70205 11.2045H7.99528C7.95111 11.2045 7.95111 11.1597 7.95111 11.1597V10.3978C7.95111 10.3529 7.99528 10.3529 7.99528 10.3529H8.70205C8.74622 10.3529 8.74622 10.3081 8.74622 10.3081V9.5462C8.74622 9.5014 8.79039 9.5014 8.79039 9.5014C8.92295 9.5014 9.32048 9.5014 9.49716 9.5014C9.54133 9.5014 9.54133 9.5462 9.54133 9.5462C9.54133 9.7703 9.54133 11.2045 9.54133 11.7423Z" fill="#FCFCFC"/>
<path d="M9.62958 8.56024V9.18769C9.62958 9.23249 9.6738 9.23249 9.6738 9.23249H10.2922C10.3363 9.23249 10.3363 9.18769 10.3363 9.18769V8.56024C10.3363 8.51544 10.2922 8.51544 10.2922 8.51544H9.6738L9.62958 8.56024Z" fill="#FCFCFC"/>
<path d="M127.684 4.96219V10.8939V12.5116C127.684 12.6015 127.747 12.7813 127.996 12.7813H128.88H129.291C129.539 12.7813 129.593 12.6015 129.589 12.5116V10.3996V5.45652C129.589 5.23182 129.766 5.00712 130.032 5.00712H131.981C132.202 5.00712 132.424 5.18687 132.424 5.45652V10.3996V12.5871C132.432 12.677 132.491 12.7813 132.658 12.7813H132.814H133.014H133.279V4.96219V4.71342C132.865 4.71342 132.747 4.55775 132.747 4.42294V3.34445C132.747 3.20964 132.615 3.07483 132.482 3.07483H128.88C128.748 3.07483 128.615 3.20964 128.615 3.34445V4.42294C128.615 4.55775 128.482 4.69257 128.349 4.69257H127.951C127.818 4.69257 127.684 4.82737 127.684 4.96219Z" fill="#FCFCFC"/>
<path d="M138.874 4.96219V10.8939V12.5116C138.874 12.6015 138.812 12.7813 138.563 12.7813H137.678H137.268C137.019 12.7813 136.965 12.6015 136.969 12.5116V10.3996V5.45652C136.969 5.23182 136.792 5.00712 136.526 5.00712H134.577C134.356 5.00712 134.134 5.18687 134.134 5.45652V10.3996V12.5871C134.125 12.677 134.067 12.7813 133.901 12.7813H133.744H133.545H133.28V4.96219V4.71342C133.693 4.71342 133.811 4.55775 133.811 4.42294V3.34445C133.811 3.20964 133.943 3.07483 134.077 3.07483H137.678C137.811 3.07483 137.944 3.20964 137.944 3.34445V4.42294C137.944 4.55775 138.077 4.69257 138.209 4.69257H138.608C138.741 4.69257 138.874 4.82737 138.874 4.96219Z" fill="#FCFCFC"/>
<path d="M147.349 15.856L148.937 14.1518C148.981 14.1045 149.025 14.0098 148.981 13.9151V3.35886C148.984 3.26418 148.926 3.07483 148.679 3.07483H148.085H147.493C147.286 3.07483 147.252 3.26418 147.261 3.35886V3.73757V10.3174C147.261 10.4594 147.173 10.6014 146.996 10.6014H142.762C142.629 10.6014 142.497 10.4594 142.497 10.3174V3.73757V3.35886C142.494 3.26418 142.436 3.07483 142.229 3.07483H141.086H140.688C140.556 3.07483 140.424 3.21684 140.424 3.35886V10.8381C140.424 10.8854 140.424 10.9328 140.468 10.9801L141.35 12.495C141.394 12.5896 141.482 12.637 141.571 12.637H146.864C146.996 12.637 147.129 12.779 147.129 12.921V13.631C147.129 13.7731 146.996 13.9151 146.864 13.9151H141.659C141.526 13.9151 141.394 14.0571 141.394 14.1991V15.6666C141.394 15.8086 141.526 15.9507 141.659 15.9507H147.173C147.217 15.9507 147.305 15.9033 147.349 15.856Z" fill="#FCFCFC"/>
<path d="M88.5177 3.07483H93.8404C94.0164 3.07483 94.193 3.25375 94.193 3.43267V4.77456C94.193 4.90876 94.0604 5.04297 93.9284 5.04297H89.4436C89.3115 5.04297 89.1795 5.17712 89.1795 5.31132V12.5128C89.1795 12.647 89.0469 12.7813 88.9149 12.7813L88.5209 11.1806L87.8507 11.0324C87.7187 11.0324 87.2833 11.0677 87.2833 10.9334V4.95348C87.2833 4.8193 87.4159 4.68511 87.5479 4.68511H87.9891C88.1211 4.68511 88.2531 4.55091 88.2531 4.41673V3.3432C88.2531 3.20902 88.3857 3.07483 88.5177 3.07483Z" fill="#FCFCFC"/>
<path d="M88.5177 12.7813L93.8319 12.7622C94.0084 12.7622 94.1415 12.6917 94.1415 12.5128V11.1525C94.1415 11.0182 94.009 10.884 93.877 10.884L89.4436 10.8655C89.3115 10.8655 89.1795 10.7313 89.1795 10.5972V3.34321C89.1795 3.20902 89.0469 3.07483 88.9149 3.07483L88.2632 4.65645C88.1312 4.65645 87.2833 4.81881 87.2833 4.95299V10.9026C87.2833 11.0368 87.4159 11.171 87.5479 11.171H87.9891C88.1211 11.171 88.2531 11.3051 88.2531 11.4393V12.5128C88.2531 12.647 88.3857 12.7813 88.5177 12.7813Z" fill="#FCFCFC"/>
<path d="M119.09 3.07483H125.697C125.916 3.07483 126.135 3.25375 126.135 3.43267V5.28017V6.20397V6.66582V8.53562C126.135 8.74352 125.959 8.91207 125.742 8.91207H119.912V7.15567H120.45H120.987H122.063H123.823C124.04 7.15567 124.215 6.98712 124.215 6.77922V5.41942C124.215 5.21152 124.04 5.04297 123.823 5.04297H120.24C120.075 5.04297 119.912 5.17712 119.912 5.31132V6.13937V6.55342V7.15567V8.91207V12.5128C119.912 12.647 119.747 12.7813 119.583 12.7813L119.094 11.1806L118.263 11.0324C118.098 11.0324 117.558 11.0677 117.558 10.9334V4.95348C117.558 4.8193 117.723 4.68511 117.887 4.68511H118.434C118.598 4.68511 118.763 4.55091 118.763 4.41673V3.3432C118.763 3.20902 118.926 3.07483 119.09 3.07483Z" fill="#FCFCFC"/>
<path d="M119.09 12.7813L125.687 12.7622C125.906 12.7622 126.071 12.6917 126.071 12.5128V11.1525C126.071 11.0182 125.907 10.884 125.742 10.884L120.24 10.8655C120.075 10.8655 119.912 10.7313 119.912 10.5972V6.97017V3.34321C119.912 3.20902 119.747 3.07483 119.583 3.07483L118.775 4.65645C118.61 4.65645 117.558 4.81881 117.558 4.95299V10.9026C117.558 11.0368 117.723 11.171 117.887 11.171H118.434C118.598 11.171 118.763 11.3051 118.763 11.4393V12.5128C118.763 12.647 118.926 12.7813 119.09 12.7813Z" fill="#FCFCFC"/>
<path d="M85.6898 11.4899V12.5376C85.6898 12.639 85.5578 12.7403 85.4263 12.7403H83.274C83.1425 12.7403 83.0105 12.639 83.0105 12.5376V11.7603C83.0105 11.6589 82.879 11.5574 82.7469 11.5574H82.3519C82.3519 11.5574 82.0884 11.5623 82.0884 11.5574V3.2776C82.0884 3.17621 82.2199 3.07483 82.3519 3.07483H83.7571C83.8891 3.07483 84.0206 3.17621 84.0206 3.2776L83.9771 11.0843C83.9771 11.1857 84.1086 11.2871 84.2401 11.2871H85.4703C85.5578 11.2871 85.6898 11.3885 85.6898 11.4899Z" fill="#FCFCFC"/>
<path d="M75.4884 11.2637L76.9402 12.6919C76.9842 12.7365 77.0717 12.7811 77.1157 12.7811H81.7788C81.9108 12.7811 82.0884 12.5782 82.0884 12.4443C82.0884 12.3104 82.0884 11.1745 82.0884 11.1745H83.7142C83.8457 11.1745 83.9777 11.0406 83.9777 10.9067V3.41994C83.9777 3.28605 83.8154 3.09668 83.6834 3.09668L81.8228 3.09668H76.6322C76.5001 3.09668 76.3681 3.23058 76.3681 3.36446V4.39092C76.3681 4.52481 76.2361 4.6587 76.104 4.6587H75.6645C75.5324 4.6587 75.4004 4.79258 75.4004 4.92646V11.0406C75.4004 11.1745 75.4444 11.2191 75.4884 11.2637ZM77.2918 10.5943V5.37274C77.2918 5.23889 77.4238 5.10499 77.5559 5.10499H81.7788C81.9108 5.10499 82.0423 5.23889 82.0423 5.37274V10.639C82.0423 10.7728 81.9108 10.9067 81.7788 10.9067H77.5559C77.4238 10.862 77.2918 10.7728 77.2918 10.5943Z" fill="#FCFCFC"/>
<path d="M106.046 11.4899V12.5376C106.046 12.639 105.914 12.7403 105.782 12.7403H103.629C103.498 12.7403 103.367 12.639 103.367 12.5376V11.7603C103.367 11.6589 103.234 11.5574 103.103 11.5574H102.708C102.708 11.5574 102.444 11.5623 102.444 11.5574V3.2776C102.444 3.17621 102.576 3.07483 102.708 3.07483H104.113C104.245 3.07483 104.376 3.17621 104.376 3.2776L104.332 11.0843C104.332 11.1857 104.464 11.2871 104.596 11.2871H105.826C105.914 11.2871 106.046 11.3885 106.046 11.4899Z" fill="#FCFCFC"/>
<path d="M95.8441 11.2637L97.2959 12.6919C97.34 12.7365 97.428 12.7811 97.472 12.7811H102.134C102.266 12.7811 102.444 12.5782 102.444 12.4443C102.444 12.3104 102.444 11.1745 102.444 11.1745H104.07C104.202 11.1745 104.333 11.0406 104.333 10.9067V3.41994C104.333 3.28605 104.171 3.09668 104.039 3.09668L102.178 3.09668H96.9879C96.8558 3.09668 96.7238 3.23058 96.7238 3.36446V4.39092C96.7238 4.52481 96.5923 4.6587 96.4603 4.6587H96.0202C95.8881 4.6587 95.7561 4.79258 95.7561 4.92646V11.0406C95.7561 11.1745 95.8001 11.2191 95.8441 11.2637ZM97.6475 10.5943V5.37274C97.6475 5.23889 97.7795 5.10499 97.9116 5.10499H102.134C102.266 5.10499 102.399 5.23889 102.399 5.37274V10.639C102.399 10.7728 102.266 10.9067 102.134 10.9067H97.9116C97.7795 10.862 97.6475 10.7728 97.6475 10.5943Z" fill="#FCFCFC"/>
<path d="M73.4586 10.8994H72.2794C72.063 10.8994 71.8875 11.0679 71.8875 11.2758V12.4048C71.8875 12.6127 72.063 12.7812 72.2794 12.7812H73.4586C73.675 12.7812 73.8505 12.6127 73.8505 12.4048V11.2758C73.8505 11.0679 73.675 10.8994 73.4586 10.8994Z" fill="#FCFCFC"/>
</g>
<defs>
<clipPath id="clip0_2148_145988">
<rect width="149" height="16" fill="white"/>
</clipPath>
</defs>
</svg>
