<svg width="171.28" height="19.8" viewBox="0 0 171.28 19.8" xmlns="http://www.w3.org/2000/svg"><g id="svgGroup" stroke-linecap="round" fill-rule="evenodd" font-size="9pt" stroke="#ffffff" stroke-width="0.25mm" fill="#ffffff" style="stroke:#ffffff;stroke-width:0.25mm;fill:#ffffff"><path d="M 146.12 15.16 L 144.32 15.16 L 144.32 4.76 L 146.06 4.76 L 146.06 6.5 Q 146.62 5.66 147.48 5.09 A 3.441 3.441 0 0 1 149.32 4.522 A 4.171 4.171 0 0 1 149.44 4.52 Q 150.68 4.52 151.47 5.12 A 3.15 3.15 0 0 1 152.56 6.658 A 3.831 3.831 0 0 1 152.58 6.72 Q 153.2 5.8 154.05 5.16 A 3.134 3.134 0 0 1 155.408 4.583 A 4.289 4.289 0 0 1 156.16 4.52 Q 157.545 4.52 158.353 5.23 A 2.599 2.599 0 0 1 158.69 5.59 A 3.798 3.798 0 0 1 159.372 7.044 Q 159.52 7.654 159.52 8.38 L 159.52 15.16 L 157.72 15.16 L 157.72 8.52 A 3.809 3.809 0 0 0 157.653 7.782 Q 157.565 7.341 157.366 6.992 A 2.196 2.196 0 0 0 157.22 6.77 A 1.595 1.595 0 0 0 156.057 6.111 A 2.136 2.136 0 0 0 155.84 6.1 A 2.385 2.385 0 0 0 154.488 6.525 A 3.199 3.199 0 0 0 154.17 6.77 Q 153.4 7.44 152.82 8.34 L 152.82 15.16 L 151.02 15.16 L 151.02 8.52 A 3.809 3.809 0 0 0 150.953 7.782 Q 150.865 7.341 150.666 6.992 A 2.196 2.196 0 0 0 150.52 6.77 A 1.595 1.595 0 0 0 149.357 6.111 A 2.136 2.136 0 0 0 149.14 6.1 A 2.404 2.404 0 0 0 147.876 6.466 A 3.249 3.249 0 0 0 147.48 6.75 Q 146.7 7.4 146.12 8.28 L 146.12 15.16 Z M 161.12 19.4 L 161.52 17.9 Q 161.76 18.04 162.12 18.14 A 2.703 2.703 0 0 0 162.576 18.223 A 3.472 3.472 0 0 0 162.92 18.24 Q 163.76 18.24 164.42 17.7 A 2.401 2.401 0 0 0 164.807 17.288 Q 165.156 16.826 165.488 16.055 A 11.716 11.716 0 0 0 165.68 15.58 L 166.14 14.38 L 165.18 14.38 L 161.12 5.24 L 162.72 4.52 L 166.6 13.18 L 169.62 4.6 L 171.28 5.24 L 167.46 15.68 A 14.346 14.346 0 0 1 167.049 16.697 Q 166.646 17.589 166.2 18.18 Q 165.57 19.013 164.821 19.384 A 2.948 2.948 0 0 1 164.7 19.44 Q 163.88 19.8 162.88 19.8 A 6.086 6.086 0 0 1 162.871 19.8 Q 162.339 19.799 161.926 19.704 A 2.917 2.917 0 0 1 161.83 19.68 Q 161.518 19.597 161.298 19.495 A 1.723 1.723 0 0 1 161.12 19.4 Z M 32.34 5.8 L 32.34 0.36 L 34.14 0.36 L 34.14 12.64 A 2.43 2.43 0 0 0 34.16 12.967 Q 34.227 13.454 34.51 13.63 Q 34.88 13.86 35.32 13.86 L 34.94 15.26 Q 33.04 15.26 32.62 13.74 A 3.897 3.897 0 0 1 32.054 14.37 Q 31.761 14.636 31.39 14.88 A 3.028 3.028 0 0 1 30.387 15.297 Q 29.934 15.4 29.4 15.4 Q 28.12 15.4 27.06 14.74 A 4.538 4.538 0 0 1 25.552 13.182 A 5.524 5.524 0 0 1 25.38 12.87 Q 24.76 11.66 24.76 10.02 A 6.788 6.788 0 0 1 24.938 8.437 A 5.593 5.593 0 0 1 25.39 7.2 A 5.458 5.458 0 0 1 26.314 5.882 A 4.837 4.837 0 0 1 27.07 5.24 Q 28.12 4.52 29.38 4.52 A 4.328 4.328 0 0 1 30.234 4.6 A 3.188 3.188 0 0 1 31.17 4.94 A 6.869 6.869 0 0 1 31.686 5.258 Q 32.078 5.525 32.34 5.8 Z M 128.26 5.8 L 128.26 0.36 L 130.06 0.36 L 130.06 12.64 A 2.43 2.43 0 0 0 130.08 12.967 Q 130.147 13.454 130.43 13.63 Q 130.8 13.86 131.24 13.86 L 130.86 15.26 Q 128.96 15.26 128.54 13.74 A 3.897 3.897 0 0 1 127.974 14.37 Q 127.681 14.636 127.31 14.88 A 3.028 3.028 0 0 1 126.307 15.297 Q 125.854 15.4 125.32 15.4 Q 124.04 15.4 122.98 14.74 A 4.538 4.538 0 0 1 121.472 13.182 A 5.524 5.524 0 0 1 121.3 12.87 Q 120.68 11.66 120.68 10.02 A 6.788 6.788 0 0 1 120.858 8.437 A 5.593 5.593 0 0 1 121.31 7.2 A 5.458 5.458 0 0 1 122.234 5.882 A 4.837 4.837 0 0 1 122.99 5.24 Q 124.04 4.52 125.3 4.52 A 4.328 4.328 0 0 1 126.154 4.6 A 3.188 3.188 0 0 1 127.09 4.94 A 6.869 6.869 0 0 1 127.606 5.258 Q 127.998 5.525 128.26 5.8 Z M 72.66 14.3 L 72.66 15.16 L 70.98 15.16 L 70.98 0.36 L 72.78 0.36 L 72.78 5.84 A 3.102 3.102 0 0 1 73.157 5.478 Q 73.361 5.312 73.615 5.15 A 6.663 6.663 0 0 1 73.95 4.95 Q 74.72 4.52 75.78 4.52 Q 76.98 4.52 78.03 5.15 A 4.466 4.466 0 0 1 79.466 6.543 A 5.493 5.493 0 0 1 79.72 6.97 A 5.137 5.137 0 0 1 80.219 8.378 Q 80.36 9.063 80.36 9.86 A 6.663 6.663 0 0 1 80.223 11.238 A 5.55 5.55 0 0 1 79.96 12.12 Q 79.56 13.14 78.89 13.87 A 4.979 4.979 0 0 1 77.664 14.853 A 4.661 4.661 0 0 1 77.38 15 A 4.001 4.001 0 0 1 75.907 15.392 A 3.842 3.842 0 0 1 75.66 15.4 Q 74.76 15.4 73.97 15.07 A 6.055 6.055 0 0 1 73.309 14.748 Q 72.979 14.56 72.714 14.345 A 3.647 3.647 0 0 1 72.66 14.3 Z M 45.94 10.7 L 38.66 10.7 A 4.818 4.818 0 0 0 38.888 11.705 Q 39.126 12.384 39.568 12.865 A 2.996 2.996 0 0 0 39.68 12.98 A 2.829 2.829 0 0 0 41.205 13.742 A 4.004 4.004 0 0 0 41.9 13.8 Q 42.8 13.8 43.52 13.61 Q 44.24 13.42 44.9 13.12 L 45.32 14.66 A 8.154 8.154 0 0 1 44.453 14.985 A 10.373 10.373 0 0 1 43.7 15.19 Q 42.8 15.4 41.68 15.4 A 5.664 5.664 0 0 1 40.131 15.199 A 4.222 4.222 0 0 1 38.13 13.97 A 4.704 4.704 0 0 1 37.089 12.062 Q 36.887 11.362 36.837 10.53 A 9.425 9.425 0 0 1 36.82 9.96 A 7.072 7.072 0 0 1 36.987 8.396 A 5.768 5.768 0 0 1 37.41 7.17 A 4.928 4.928 0 0 1 38.413 5.754 A 4.577 4.577 0 0 1 39.06 5.23 A 4.21 4.21 0 0 1 41.112 4.536 A 5.241 5.241 0 0 1 41.52 4.52 A 5.711 5.711 0 0 1 42.614 4.619 Q 43.283 4.75 43.817 5.052 A 3.443 3.443 0 0 1 44.01 5.17 Q 45 5.82 45.5 6.92 A 5.637 5.637 0 0 1 45.985 8.893 A 6.687 6.687 0 0 1 46 9.34 A 15.041 15.041 0 0 1 45.942 10.679 A 14.117 14.117 0 0 1 45.94 10.7 Z M 141.86 10.7 L 134.58 10.7 A 4.818 4.818 0 0 0 134.808 11.705 Q 135.046 12.384 135.488 12.865 A 2.996 2.996 0 0 0 135.6 12.98 A 2.829 2.829 0 0 0 137.125 13.742 A 4.004 4.004 0 0 0 137.82 13.8 Q 138.72 13.8 139.44 13.61 Q 140.16 13.42 140.82 13.12 L 141.24 14.66 A 8.154 8.154 0 0 1 140.373 14.985 A 10.373 10.373 0 0 1 139.62 15.19 Q 138.72 15.4 137.6 15.4 A 5.664 5.664 0 0 1 136.051 15.199 A 4.222 4.222 0 0 1 134.05 13.97 A 4.704 4.704 0 0 1 133.009 12.062 Q 132.807 11.362 132.757 10.53 A 9.425 9.425 0 0 1 132.74 9.96 A 7.072 7.072 0 0 1 132.907 8.396 A 5.768 5.768 0 0 1 133.33 7.17 A 4.928 4.928 0 0 1 134.333 5.754 A 4.577 4.577 0 0 1 134.98 5.23 A 4.21 4.21 0 0 1 137.032 4.536 A 5.241 5.241 0 0 1 137.44 4.52 A 5.711 5.711 0 0 1 138.534 4.619 Q 139.203 4.75 139.737 5.052 A 3.443 3.443 0 0 1 139.93 5.17 Q 140.92 5.82 141.42 6.92 A 5.637 5.637 0 0 1 141.905 8.893 A 6.687 6.687 0 0 1 141.92 9.34 A 15.041 15.041 0 0 1 141.862 10.679 A 14.117 14.117 0 0 1 141.86 10.7 Z M 12 17.52 L 12 16.38 Q 12.76 16.2 13.21 15.85 Q 13.635 15.519 13.837 14.876 A 3.057 3.057 0 0 0 13.86 14.8 A 4.237 4.237 0 0 0 13.97 14.285 Q 14.06 13.7 14.06 12.88 A 16.592 16.592 0 0 1 14.079 12.049 Q 14.12 11.249 14.244 10.707 A 4.061 4.061 0 0 1 14.28 10.56 Q 14.5 9.74 15 9.35 A 2.67 2.67 0 0 1 15.503 9.045 Q 15.753 8.926 16.055 8.836 A 5.182 5.182 0 0 1 16.34 8.76 A 4.692 4.692 0 0 1 15.758 8.583 Q 15.313 8.414 15 8.17 Q 14.57 7.835 14.347 7.175 A 3.527 3.527 0 0 1 14.28 6.95 A 5.256 5.256 0 0 1 14.164 6.368 Q 14.075 5.757 14.062 4.92 A 18.67 18.67 0 0 1 14.06 4.64 A 12.105 12.105 0 0 0 14.04 3.928 Q 14.001 3.265 13.883 2.806 A 3.341 3.341 0 0 0 13.86 2.72 A 2.579 2.579 0 0 0 13.675 2.244 Q 13.491 1.889 13.21 1.67 A 2.398 2.398 0 0 0 12.757 1.396 Q 12.428 1.241 12 1.14 L 12 0 Q 13.04 0.096 13.785 0.422 A 3.723 3.723 0 0 1 14.14 0.6 A 2.823 2.823 0 0 1 15.248 1.766 A 3.629 3.629 0 0 1 15.39 2.07 Q 15.8 3.06 15.8 4.72 Q 15.8 5.884 15.946 6.584 A 4.124 4.124 0 0 0 15.96 6.65 A 2.537 2.537 0 0 0 16.097 7.084 Q 16.197 7.32 16.34 7.493 A 1.297 1.297 0 0 0 16.54 7.69 A 1.755 1.755 0 0 0 16.964 7.931 Q 17.165 8.014 17.41 8.067 A 3.792 3.792 0 0 0 17.72 8.12 L 17.72 9.4 A 3.51 3.51 0 0 0 17.24 9.495 Q 17.002 9.561 16.81 9.659 A 1.641 1.641 0 0 0 16.54 9.83 A 1.414 1.414 0 0 0 16.176 10.269 Q 16.073 10.457 16.003 10.693 A 2.841 2.841 0 0 0 15.96 10.86 Q 15.815 11.492 15.801 12.565 A 18.03 18.03 0 0 0 15.8 12.8 Q 15.8 13.93 15.606 14.755 A 4.559 4.559 0 0 1 15.39 15.44 A 3.267 3.267 0 0 1 14.902 16.275 A 2.717 2.717 0 0 1 14.14 16.92 Q 13.3 17.4 12 17.52 Z M 5.72 16.38 L 5.72 17.52 A 6.91 6.91 0 0 1 4.768 17.367 Q 4.101 17.209 3.59 16.92 A 2.808 2.808 0 0 1 2.469 15.74 A 3.62 3.62 0 0 1 2.33 15.44 Q 1.92 14.44 1.92 12.8 A 15.571 15.571 0 0 0 1.905 12.082 Q 1.874 11.421 1.782 10.965 A 4.018 4.018 0 0 0 1.76 10.86 Q 1.6 10.16 1.18 9.83 A 1.755 1.755 0 0 0 0.756 9.589 Q 0.555 9.506 0.31 9.453 A 3.792 3.792 0 0 0 0 9.4 L 0 8.12 A 3.51 3.51 0 0 0 0.48 8.025 Q 0.718 7.959 0.91 7.861 A 1.641 1.641 0 0 0 1.18 7.69 Q 1.534 7.412 1.704 6.863 A 2.842 2.842 0 0 0 1.76 6.65 Q 1.913 5.972 1.92 4.83 A 18.071 18.071 0 0 0 1.92 4.72 Q 1.92 3.6 2.107 2.785 A 4.487 4.487 0 0 1 2.33 2.07 Q 2.74 1.08 3.59 0.6 A 4.273 4.273 0 0 1 4.481 0.229 Q 4.9 0.105 5.388 0.038 A 7.802 7.802 0 0 1 5.72 0 L 5.72 1.14 Q 5.091 1.293 4.664 1.569 A 2.301 2.301 0 0 0 4.52 1.67 A 1.672 1.672 0 0 0 4.075 2.192 Q 3.944 2.425 3.86 2.72 A 4.237 4.237 0 0 0 3.75 3.235 Q 3.66 3.82 3.66 4.64 Q 3.66 6.012 3.471 6.825 A 4.18 4.18 0 0 1 3.44 6.95 A 3.12 3.12 0 0 1 3.256 7.469 Q 3.126 7.747 2.949 7.951 A 1.622 1.622 0 0 1 2.72 8.17 A 2.67 2.67 0 0 1 2.217 8.475 Q 1.967 8.594 1.665 8.684 A 5.182 5.182 0 0 1 1.38 8.76 A 4.692 4.692 0 0 1 1.962 8.937 Q 2.408 9.106 2.72 9.35 A 1.777 1.777 0 0 1 3.16 9.864 Q 3.29 10.087 3.382 10.367 A 3.508 3.508 0 0 1 3.44 10.56 A 5.1 5.1 0 0 1 3.556 11.139 Q 3.645 11.749 3.658 12.596 A 19.138 19.138 0 0 1 3.66 12.88 A 12.105 12.105 0 0 0 3.68 13.592 Q 3.719 14.255 3.837 14.714 A 3.341 3.341 0 0 0 3.86 14.8 A 2.515 2.515 0 0 0 4.047 15.276 Q 4.233 15.631 4.52 15.85 A 2.586 2.586 0 0 0 5.013 16.141 Q 5.327 16.284 5.72 16.38 Z M 53.06 15.16 L 51.18 15.16 L 47 5.24 L 48.64 4.56 L 52.18 13.12 L 55.72 4.56 L 57.26 5.24 L 53.06 15.16 Z M 107.18 5.14 L 106.64 6.66 A 6.084 6.084 0 0 0 106.059 6.405 A 4.684 4.684 0 0 0 105.57 6.25 A 4.109 4.109 0 0 0 104.961 6.145 A 5.271 5.271 0 0 0 104.44 6.12 A 3.178 3.178 0 0 0 102.989 6.449 A 3.226 3.226 0 0 0 102.09 7.13 A 3.347 3.347 0 0 0 101.297 8.601 Q 101.14 9.197 101.14 9.92 A 5.038 5.038 0 0 0 101.281 11.132 A 4.29 4.29 0 0 0 101.54 11.88 Q 101.94 12.76 102.65 13.28 Q 103.36 13.8 104.32 13.8 A 5.684 5.684 0 0 0 104.901 13.772 Q 105.187 13.742 105.434 13.682 A 3.016 3.016 0 0 0 105.62 13.63 Q 106.158 13.461 106.775 13.142 A 9.378 9.378 0 0 0 106.78 13.14 L 107.34 14.66 A 5.707 5.707 0 0 1 106.417 15.061 A 6.858 6.858 0 0 1 105.95 15.2 Q 105.18 15.4 104.2 15.4 A 5.361 5.361 0 0 1 102.792 15.222 A 4.415 4.415 0 0 1 101.61 14.71 Q 100.5 14.02 99.9 12.79 A 5.872 5.872 0 0 1 99.373 11.028 A 7.604 7.604 0 0 1 99.3 9.96 A 6.407 6.407 0 0 1 99.563 8.103 A 5.76 5.76 0 0 1 99.91 7.22 Q 100.52 5.98 101.66 5.25 A 4.613 4.613 0 0 1 103.594 4.566 A 5.922 5.922 0 0 1 104.34 4.52 Q 105.143 4.52 105.771 4.653 A 4.794 4.794 0 0 1 105.89 4.68 Q 106.56 4.84 107.18 5.14 Z M 94.98 5.6 L 94.98 4.76 L 96.62 4.76 L 96.62 12.64 A 2.43 2.43 0 0 0 96.64 12.967 Q 96.707 13.454 96.99 13.63 Q 97.36 13.86 97.8 13.86 L 97.42 15.26 A 4.683 4.683 0 0 1 97.39 15.26 Q 95.519 15.248 95.109 13.736 A 2.755 2.755 0 0 1 95.1 13.7 A 4.261 4.261 0 0 1 94.478 14.385 A 5.7 5.7 0 0 1 93.85 14.87 Q 93.06 15.4 91.84 15.4 Q 90.54 15.4 89.48 14.74 Q 88.42 14.08 87.79 12.87 A 5.446 5.446 0 0 1 87.264 11.282 A 7.329 7.329 0 0 1 87.16 10.02 A 6.628 6.628 0 0 1 87.359 8.366 A 5.594 5.594 0 0 1 87.79 7.22 Q 88.42 5.98 89.53 5.25 A 4.459 4.459 0 0 1 91.769 4.529 A 5.478 5.478 0 0 1 92.08 4.52 A 4.517 4.517 0 0 1 93.039 4.618 A 3.741 3.741 0 0 1 93.71 4.83 A 5.2 5.2 0 0 1 94.567 5.289 A 4.421 4.421 0 0 1 94.98 5.6 Z M 116.36 5.6 L 116.36 4.76 L 118 4.76 L 118 12.64 A 2.43 2.43 0 0 0 118.02 12.967 Q 118.087 13.454 118.37 13.63 Q 118.74 13.86 119.18 13.86 L 118.8 15.26 A 4.683 4.683 0 0 1 118.77 15.26 Q 116.899 15.248 116.489 13.736 A 2.755 2.755 0 0 1 116.48 13.7 A 4.261 4.261 0 0 1 115.858 14.385 A 5.7 5.7 0 0 1 115.23 14.87 Q 114.44 15.4 113.22 15.4 Q 111.92 15.4 110.86 14.74 Q 109.8 14.08 109.17 12.87 A 5.446 5.446 0 0 1 108.644 11.282 A 7.329 7.329 0 0 1 108.54 10.02 A 6.628 6.628 0 0 1 108.739 8.366 A 5.594 5.594 0 0 1 109.17 7.22 Q 109.8 5.98 110.91 5.25 A 4.459 4.459 0 0 1 113.149 4.529 A 5.478 5.478 0 0 1 113.46 4.52 A 4.517 4.517 0 0 1 114.419 4.618 A 3.741 3.741 0 0 1 115.09 4.83 A 5.2 5.2 0 0 1 115.947 5.289 A 4.421 4.421 0 0 1 116.36 5.6 Z M 58.96 11.9 L 58.96 0.36 L 60.76 0.36 L 60.76 11.72 Q 60.76 12.8 61.21 13.32 A 1.473 1.473 0 0 0 62.127 13.815 A 2.145 2.145 0 0 0 62.46 13.84 Q 62.84 13.84 63.21 13.75 A 4.438 4.438 0 0 0 63.503 13.669 Q 63.69 13.609 63.84 13.54 L 64.28 15 Q 64 15.124 63.618 15.225 A 6.996 6.996 0 0 1 63.39 15.28 A 4.763 4.763 0 0 1 62.759 15.377 A 6.103 6.103 0 0 1 62.22 15.4 Q 61.3 15.4 60.56 15.05 A 2.537 2.537 0 0 1 59.495 14.097 A 3.171 3.171 0 0 1 59.39 13.92 A 3.151 3.151 0 0 1 59.096 13.149 Q 59.007 12.787 58.976 12.362 A 6.421 6.421 0 0 1 58.96 11.9 Z M 67.78 15.16 L 65.98 15.16 L 65.98 4.76 L 67.78 4.76 L 67.78 15.16 Z M 94.82 12.5 L 94.82 6.92 Q 94.28 6.54 93.63 6.31 Q 92.98 6.08 92.26 6.08 A 3.185 3.185 0 0 0 91.266 6.231 A 2.805 2.805 0 0 0 90.57 6.57 A 3.26 3.26 0 0 0 89.566 7.655 A 3.992 3.992 0 0 0 89.42 7.93 A 4.133 4.133 0 0 0 89.069 9.065 A 5.536 5.536 0 0 0 89 9.96 Q 89 11.08 89.42 11.95 A 3.52 3.52 0 0 0 90.041 12.859 A 3.139 3.139 0 0 0 90.58 13.31 Q 91.32 13.8 92.24 13.8 Q 93 13.8 93.68 13.43 Q 94.36 13.06 94.82 12.5 Z M 116.2 12.5 L 116.2 6.92 Q 115.66 6.54 115.01 6.31 Q 114.36 6.08 113.64 6.08 A 3.185 3.185 0 0 0 112.646 6.231 A 2.805 2.805 0 0 0 111.95 6.57 A 3.26 3.26 0 0 0 110.946 7.655 A 3.992 3.992 0 0 0 110.8 7.93 A 4.133 4.133 0 0 0 110.449 9.065 A 5.536 5.536 0 0 0 110.38 9.96 Q 110.38 11.08 110.8 11.95 A 3.52 3.52 0 0 0 111.421 12.859 A 3.139 3.139 0 0 0 111.96 13.31 Q 112.7 13.8 113.62 13.8 Q 114.38 13.8 115.06 13.43 Q 115.74 13.06 116.2 12.5 Z M 72.78 7.44 L 72.78 13 A 3.598 3.598 0 0 0 73.506 13.437 A 4.36 4.36 0 0 0 73.86 13.58 Q 74.48 13.8 75.18 13.8 A 3.398 3.398 0 0 0 76.183 13.656 A 2.949 2.949 0 0 0 76.91 13.32 A 3.19 3.19 0 0 0 77.94 12.238 A 3.93 3.93 0 0 0 78.09 11.96 Q 78.52 11.08 78.52 9.92 A 5.609 5.609 0 0 0 78.441 8.952 Q 78.342 8.388 78.12 7.922 A 3.467 3.467 0 0 0 78.09 7.86 Q 77.66 7 76.95 6.54 Q 76.24 6.08 75.38 6.08 A 2.948 2.948 0 0 0 74.255 6.293 A 2.811 2.811 0 0 0 73.83 6.51 A 4.711 4.711 0 0 0 73.324 6.871 Q 73.076 7.075 72.894 7.293 A 2.588 2.588 0 0 0 72.78 7.44 Z M 32.34 12.54 L 32.34 7.38 A 3.169 3.169 0 0 0 31.918 6.945 Q 31.641 6.708 31.28 6.49 Q 30.6 6.08 29.78 6.08 A 2.989 2.989 0 0 0 28.789 6.24 A 2.677 2.677 0 0 0 28.1 6.6 Q 27.38 7.12 26.99 7.99 A 4.438 4.438 0 0 0 26.642 9.263 A 5.623 5.623 0 0 0 26.6 9.96 A 4.951 4.951 0 0 0 26.719 11.064 A 4.065 4.065 0 0 0 27.02 11.93 A 3.641 3.641 0 0 0 27.628 12.833 A 3.224 3.224 0 0 0 28.17 13.3 Q 28.9 13.8 29.8 13.8 Q 30.54 13.8 31.21 13.45 Q 31.88 13.1 32.34 12.54 Z M 128.26 12.54 L 128.26 7.38 A 3.169 3.169 0 0 0 127.838 6.945 Q 127.561 6.708 127.2 6.49 Q 126.52 6.08 125.7 6.08 A 2.989 2.989 0 0 0 124.709 6.24 A 2.677 2.677 0 0 0 124.02 6.6 Q 123.3 7.12 122.91 7.99 A 4.438 4.438 0 0 0 122.562 9.263 A 5.623 5.623 0 0 0 122.52 9.96 A 4.951 4.951 0 0 0 122.639 11.064 A 4.065 4.065 0 0 0 122.94 11.93 A 3.641 3.641 0 0 0 123.548 12.833 A 3.224 3.224 0 0 0 124.09 13.3 Q 124.82 13.8 125.72 13.8 Q 126.46 13.8 127.13 13.45 Q 127.8 13.1 128.26 12.54 Z M 38.64 9.24 L 44.34 9.24 Q 44.34 8.136 43.939 7.401 A 2.484 2.484 0 0 0 43.58 6.9 A 2.498 2.498 0 0 0 42.188 6.145 A 3.679 3.679 0 0 0 41.48 6.08 A 2.716 2.716 0 0 0 40.458 6.267 A 2.505 2.505 0 0 0 39.56 6.89 Q 38.927 7.564 38.711 8.744 A 6.404 6.404 0 0 0 38.64 9.24 Z M 134.56 9.24 L 140.26 9.24 Q 140.26 8.136 139.859 7.401 A 2.484 2.484 0 0 0 139.5 6.9 A 2.498 2.498 0 0 0 138.108 6.145 A 3.679 3.679 0 0 0 137.4 6.08 A 2.716 2.716 0 0 0 136.378 6.267 A 2.505 2.505 0 0 0 135.48 6.89 Q 134.847 7.564 134.631 8.744 A 6.404 6.404 0 0 0 134.56 9.24 Z M 82.833 15.012 A 1.284 1.284 0 0 0 83.76 15.4 A 1.721 1.721 0 0 0 83.884 15.396 A 1.292 1.292 0 0 0 84.72 15.03 Q 85.1 14.66 85.1 14.06 A 1.245 1.245 0 0 0 84.984 13.526 A 1.391 1.391 0 0 0 84.69 13.12 Q 84.28 12.72 83.76 12.72 A 1.763 1.763 0 0 0 83.389 12.757 A 1.196 1.196 0 0 0 82.78 13.08 A 1.185 1.185 0 0 0 82.466 13.648 A 1.725 1.725 0 0 0 82.42 14.06 Q 82.42 14.6 82.82 15 A 1.666 1.666 0 0 0 82.833 15.012 Z M 66.007 2.618 A 1.195 1.195 0 0 0 66.88 2.98 A 1.635 1.635 0 0 0 67.179 2.954 A 1.129 1.129 0 0 0 67.8 2.63 A 1.155 1.155 0 0 0 68.085 2.137 A 1.502 1.502 0 0 0 68.14 1.72 Q 68.14 1.2 67.77 0.83 A 1.481 1.481 0 0 0 67.758 0.819 A 1.212 1.212 0 0 0 66.88 0.46 A 1.653 1.653 0 0 0 66.549 0.492 A 1.132 1.132 0 0 0 65.96 0.8 A 1.118 1.118 0 0 0 65.666 1.326 A 1.597 1.597 0 0 0 65.62 1.72 A 1.198 1.198 0 0 0 65.718 2.204 A 1.329 1.329 0 0 0 65.99 2.6 A 1.493 1.493 0 0 0 66.007 2.618 Z" vector-effect="non-scaling-stroke"/></g></svg>