<svg width="20" height="20" viewBox="0 0 20 20" fill="none" xmlns="http://www.w3.org/2000/svg">
<path d="M11.6667 15.8333C14.8092 15.8333 16.3808 15.8333 17.3567 14.8567C18.3333 13.8808 18.3333 12.3092 18.3333 9.16667C18.3333 6.02417 18.3333 4.4525 17.3567 3.47667C16.3808 2.5 14.8092 2.5 11.6667 2.5H8.33334C5.19084 2.5 3.61917 2.5 2.64334 3.47667C1.66667 4.4525 1.66667 6.02417 1.66667 9.16667C1.66667 12.3092 1.66667 13.8808 2.64334 14.8567C3.1875 15.4017 3.91667 15.6425 5.00001 15.7483" stroke="#9F9FA9" stroke-width="1.5" stroke-linecap="round" stroke-linejoin="round"/>
<path d="M11.6667 15.8333C10.6367 15.8333 9.50167 16.25 8.46584 16.7875C6.80084 17.6516 5.96834 18.0841 5.55834 17.8083C5.14834 17.5333 5.22584 16.6791 5.38167 14.9716L5.41667 14.5833" stroke="#9F9FA9" stroke-width="1.5" stroke-linecap="round" stroke-linejoin="round"/>
</svg>
