<svg width="20" height="20" viewBox="0 0 20 20" fill="none" xmlns="http://www.w3.org/2000/svg">
<g clip-path="url(#clip0_114_214507)">
<path d="M19.7875 10.225C19.7875 9.56665 19.7292 8.94165 19.6292 8.33331H10.2125V12.0916H15.6042C15.3625 13.325 14.6542 14.3666 13.6042 15.075V17.575H16.8209C18.7042 15.8333 19.7875 13.2666 19.7875 10.225Z" fill="#4285F4"/>
<path d="M10.2125 20C12.9125 20 15.1709 19.1 16.8209 17.575L13.6042 15.075C12.7042 15.675 11.5625 16.0417 10.2125 16.0417C7.6042 16.0417 5.39587 14.2833 4.6042 11.9083H1.28754V14.4833C2.9292 17.75 6.3042 20 10.2125 20Z" fill="#34A853"/>
<path d="M4.60419 11.9083C4.39586 11.3083 4.28752 10.6667 4.28752 9.99999C4.28752 9.33333 4.40419 8.69166 4.60419 8.09166V5.51666H1.28752C0.60419 6.86666 0.212524 8.38333 0.212524 9.99999C0.212524 11.6167 0.60419 13.1333 1.28752 14.4833L4.60419 11.9083Z" fill="#FBBC05"/>
<path d="M10.2125 3.95833C11.6875 3.95833 13.0042 4.46667 14.0459 5.45834L16.8959 2.60833C15.1709 0.991667 12.9125 0 10.2125 0C6.3042 0 2.9292 2.25 1.28754 5.51667L4.6042 8.09167C5.39587 5.71667 7.6042 3.95833 10.2125 3.95833Z" fill="#EA4335"/>
</g>
<defs>
<clipPath id="clip0_114_214507">
<rect width="20" height="20" fill="white"/>
</clipPath>
</defs>
</svg>
