<svg width="20" height="21" viewBox="0 0 20 21" fill="none" xmlns="http://www.w3.org/2000/svg">
<path d="M17.465 12.7728C17.635 12.3678 17.1492 12.0228 16.7417 12.2028C15.9271 12.5604 15.047 12.7443 14.1575 12.7428C10.67 12.7428 7.84333 9.97284 7.84333 6.55534C7.84206 5.40146 8.16988 4.27114 8.78833 3.297C9.025 2.92367 8.74083 2.407 8.3075 2.517C4.96667 3.3695 2.5 6.34617 2.5 9.887C2.5 14.0928 5.97917 17.502 10.2717 17.502C13.5217 17.502 16.305 15.5478 17.465 12.7728Z" stroke="#9F9FA9" stroke-width="1.5" stroke-linecap="round" stroke-linejoin="round"/>
<path d="M13.0092 2.58774C12.5675 2.29274 12.0408 2.8194 12.335 3.26107L12.86 4.04857C13.073 4.36787 13.1866 4.74309 13.1866 5.1269C13.1866 5.51072 13.073 5.88593 12.86 6.20524L12.335 6.99274C12.0408 7.4344 12.5683 7.96107 13.01 7.66607L13.7967 7.14107C14.116 6.9281 14.4912 6.81444 14.875 6.81444C15.2588 6.81444 15.634 6.9281 15.9533 7.14107L16.7408 7.66607C17.1825 7.96107 17.7092 7.4344 17.4142 6.99274L16.8892 6.20524C16.6762 5.88593 16.5625 5.51072 16.5625 5.1269C16.5625 4.74309 16.6762 4.36787 16.8892 4.04857L17.4142 3.26107C17.7092 2.8194 17.1825 2.29274 16.74 2.58774L15.9533 3.11274C15.634 3.32571 15.2588 3.43936 14.875 3.43936C14.4912 3.43936 14.116 3.32571 13.7967 3.11274L13.0092 2.58774V2.58774Z" stroke="#9F9FA9" stroke-width="1.5" stroke-linecap="round" stroke-linejoin="round"/>
</svg>
