<svg width="20" height="20" viewBox="0 0 20 20" fill="none" xmlns="http://www.w3.org/2000/svg">
<path d="M17.7142 9.13484C18.1092 9.6515 18.1092 10.349 17.7142 10.8648C16.47 12.489 13.485 15.8332 9.99999 15.8332C6.51499 15.8332 3.52999 12.489 2.28582 10.8648C2.09364 10.6174 1.98932 10.3131 1.98932 9.99984C1.98932 9.68657 2.09364 9.38223 2.28582 9.13484C3.52999 7.51067 6.51499 4.1665 9.99999 4.1665C13.485 4.1665 16.47 7.51067 17.7142 9.13484V9.13484Z" stroke="#9F9FA9" stroke-width="1.5" stroke-linecap="round" stroke-linejoin="round"/>
<path d="M10 12.5C11.3807 12.5 12.5 11.3807 12.5 10C12.5 8.61929 11.3807 7.5 10 7.5C8.61929 7.5 7.5 8.61929 7.5 10C7.5 11.3807 8.61929 12.5 10 12.5Z" stroke="#9F9FA9" stroke-width="1.5" stroke-linecap="round" stroke-linejoin="round"/>
</svg>
