<svg width="20" height="21" viewBox="0 0 20 21" fill="none" xmlns="http://www.w3.org/2000/svg">
<g clip-path="url(#clip0_2148_109158)">
<path d="M10 5.83533C8.89493 5.83533 7.83513 6.27431 7.05372 7.05572C6.27232 7.83712 5.83334 8.89692 5.83334 10.002C5.83334 11.1071 6.27232 12.1669 7.05372 12.9483C7.83513 13.7297 8.89493 14.1687 10 14.1687C11.1051 14.1687 12.1649 13.7297 12.9463 12.9483C13.7277 12.1669 14.1667 11.1071 14.1667 10.002C14.1667 8.89692 13.7277 7.83712 12.9463 7.05572C12.1649 6.27431 11.1051 5.83533 10 5.83533Z" fill="#141416"/>
<path fill-rule="evenodd" clip-rule="evenodd" d="M10 0.835327C10.221 0.835327 10.433 0.923124 10.5893 1.0794C10.7455 1.23569 10.8333 1.44765 10.8333 1.66866V2.50199C10.8333 2.72301 10.7455 2.93497 10.5893 3.09125C10.433 3.24753 10.221 3.33533 10 3.33533C9.77899 3.33533 9.56703 3.24753 9.41075 3.09125C9.25447 2.93497 9.16667 2.72301 9.16667 2.50199V1.66866C9.16667 1.44765 9.25447 1.23569 9.41075 1.0794C9.56703 0.923124 9.77899 0.835327 10 0.835327ZM2.74417 2.74616C2.90044 2.58993 3.11237 2.50217 3.33334 2.50217C3.55431 2.50217 3.76623 2.58993 3.9225 2.74616L5.1725 3.99616C5.3243 4.15333 5.4083 4.36383 5.4064 4.58233C5.4045 4.80083 5.31686 5.00984 5.16235 5.16434C5.00784 5.31885 4.79883 5.40649 4.58034 5.40839C4.36184 5.41029 4.15134 5.32629 3.99417 5.17449L2.74417 3.92449C2.58794 3.76822 2.50018 3.5563 2.50018 3.33533C2.50018 3.11436 2.58794 2.90243 2.74417 2.74616ZM17.2558 2.74616C17.4121 2.90243 17.4998 3.11436 17.4998 3.33533C17.4998 3.5563 17.4121 3.76822 17.2558 3.92449L16.0058 5.17449C15.929 5.25409 15.837 5.31757 15.7353 5.36124C15.6337 5.40492 15.5243 5.42791 15.4137 5.42887C15.303 5.42983 15.1933 5.40875 15.0909 5.36685C14.9885 5.32494 14.8954 5.26307 14.8172 5.18482C14.7389 5.10658 14.677 5.01354 14.6351 4.91112C14.5932 4.80871 14.5722 4.69898 14.5731 4.58833C14.5741 4.47768 14.5971 4.36833 14.6408 4.26666C14.6844 4.16499 14.7479 4.07303 14.8275 3.99616L16.0775 2.74616C16.2338 2.58993 16.4457 2.50217 16.6667 2.50217C16.8876 2.50217 17.0996 2.58993 17.2558 2.74616ZM0.833336 10.002C0.833336 9.78098 0.921133 9.56902 1.07741 9.41274C1.23369 9.25646 1.44566 9.16866 1.66667 9.16866H2.5C2.72102 9.16866 2.93298 9.25646 3.08926 9.41274C3.24554 9.56902 3.33334 9.78098 3.33334 10.002C3.33334 10.223 3.24554 10.435 3.08926 10.5912C2.93298 10.7475 2.72102 10.8353 2.5 10.8353H1.66667C1.44566 10.8353 1.23369 10.7475 1.07741 10.5912C0.921133 10.435 0.833336 10.223 0.833336 10.002ZM16.6667 10.002C16.6667 9.78098 16.7545 9.56902 16.9107 9.41274C17.067 9.25646 17.279 9.16866 17.5 9.16866H18.3333C18.5543 9.16866 18.7663 9.25646 18.9226 9.41274C19.0789 9.56902 19.1667 9.78098 19.1667 10.002C19.1667 10.223 19.0789 10.435 18.9226 10.5912C18.7663 10.7475 18.5543 10.8353 18.3333 10.8353H17.5C17.279 10.8353 17.067 10.7475 16.9107 10.5912C16.7545 10.435 16.6667 10.223 16.6667 10.002ZM5.1725 14.8295C5.32873 14.9858 5.41649 15.1977 5.41649 15.4187C5.41649 15.6396 5.32873 15.8516 5.1725 16.0078L3.9225 17.2578C3.76533 17.4096 3.55483 17.4936 3.33633 17.4917C3.11784 17.4898 2.90883 17.4022 2.75432 17.2477C2.59981 17.0932 2.51217 16.8842 2.51027 16.6657C2.50838 16.4472 2.59237 16.2367 2.74417 16.0795L3.99417 14.8295C4.15044 14.6733 4.36237 14.5855 4.58334 14.5855C4.80431 14.5855 5.01623 14.6733 5.1725 14.8295ZM14.8275 14.8295C14.9838 14.6733 15.1957 14.5855 15.4167 14.5855C15.6376 14.5855 15.8496 14.6733 16.0058 14.8295L17.2558 16.0795C17.4076 16.2367 17.4916 16.4472 17.4897 16.6657C17.4878 16.8842 17.4002 17.0932 17.2457 17.2477C17.0912 17.4022 16.8822 17.4898 16.6637 17.4917C16.4452 17.4936 16.2347 17.4096 16.0775 17.2578L14.8275 16.0078C14.6713 15.8516 14.5835 15.6396 14.5835 15.4187C14.5835 15.1977 14.6713 14.9858 14.8275 14.8295ZM10 16.6687C10.221 16.6687 10.433 16.7565 10.5893 16.9127C10.7455 17.069 10.8333 17.281 10.8333 17.502V18.3353C10.8333 18.5563 10.7455 18.7683 10.5893 18.9246C10.433 19.0809 10.221 19.1687 10 19.1687C9.77899 19.1687 9.56703 19.0809 9.41075 18.9246C9.25447 18.7683 9.16667 18.5563 9.16667 18.3353V17.502C9.16667 17.281 9.25447 17.069 9.41075 16.9127C9.56703 16.7565 9.77899 16.6687 10 16.6687Z" fill="#141416"/>
</g>
<defs>
<clipPath id="clip0_2148_109158">
<rect width="20" height="20" fill="white" transform="translate(0 0.00195312)"/>
</clipPath>
</defs>
</svg>
