<svg width="24" height="25" viewBox="0 0 24 25" fill="none" xmlns="http://www.w3.org/2000/svg">
<path d="M9 3.00201H4C3.44772 3.00201 3 3.44973 3 4.00201V9.00201C3 9.5543 3.44772 10.002 4 10.002H9C9.55228 10.002 10 9.5543 10 9.00201V4.00201C10 3.44973 9.55228 3.00201 9 3.00201Z" stroke="#378FF6" stroke-width="2" stroke-linecap="round" stroke-linejoin="round"/>
<path d="M9 14.002H4C3.44772 14.002 3 14.4497 3 15.002V20.002C3 20.5543 3.44772 21.002 4 21.002H9C9.55228 21.002 10 20.5543 10 20.002V15.002C10 14.4497 9.55228 14.002 9 14.002Z" stroke="#378FF6" stroke-width="2" stroke-linecap="round" stroke-linejoin="round"/>
<path d="M20 3.00201H15C14.4477 3.00201 14 3.44973 14 4.00201V9.00201C14 9.5543 14.4477 10.002 15 10.002H20C20.5523 10.002 21 9.5543 21 9.00201V4.00201C21 3.44973 20.5523 3.00201 20 3.00201Z" stroke="#378FF6" stroke-width="2" stroke-linecap="round" stroke-linejoin="round"/>
<path d="M20 14.002H15C14.4477 14.002 14 14.4497 14 15.002V20.002C14 20.5543 14.4477 21.002 15 21.002H20C20.5523 21.002 21 20.5543 21 20.002V15.002C21 14.4497 20.5523 14.002 20 14.002Z" stroke="#378FF6" stroke-width="2" stroke-linecap="round" stroke-linejoin="round"/>
</svg>
