<svg width="24" height="25" viewBox="0 0 24 25" fill="none" xmlns="http://www.w3.org/2000/svg">
<path d="M16.474 5.40996L18.592 7.52696L16.474 5.40996ZM17.836 3.54496L12.109 9.27196C11.8131 9.56746 11.6113 9.94395 11.529 10.354L11 13.002L13.648 12.472C14.058 12.39 14.434 12.189 14.73 11.893L20.457 6.16596C20.6291 5.99387 20.7656 5.78956 20.8588 5.5647C20.9519 5.33984 20.9998 5.09885 20.9998 4.85546C20.9998 4.61208 20.9519 4.37108 20.8588 4.14623C20.7656 3.92137 20.6291 3.71706 20.457 3.54496C20.2849 3.37287 20.0806 3.23635 19.8557 3.14321C19.6309 3.05007 19.3899 3.00214 19.1465 3.00214C18.9031 3.00214 18.6621 3.05007 18.4373 3.14321C18.2124 3.23635 18.0081 3.37287 17.836 3.54496V3.54496Z" stroke="#4C4C4C" stroke-width="2" stroke-linecap="round" stroke-linejoin="round"/>
<path d="M19 15.002V18.002C19 18.5324 18.7893 19.0411 18.4142 19.4162C18.0391 19.7912 17.5304 20.002 17 20.002H6C5.46957 20.002 4.96086 19.7912 4.58579 19.4162C4.21071 19.0411 4 18.5324 4 18.002V7.00195C4 6.47152 4.21071 5.96281 4.58579 5.58774C4.96086 5.21267 5.46957 5.00195 6 5.00195H9" stroke="#4C4C4C" stroke-width="2" stroke-linecap="round" stroke-linejoin="round"/>
</svg>
