<svg width="24" height="25" viewBox="0 0 24 25" fill="none" xmlns="http://www.w3.org/2000/svg">
<path d="M2 6.00201C2 4.94115 2.42143 3.92373 3.17157 3.17359C3.92172 2.42344 4.93913 2.00201 6 2.00201H18C19.0609 2.00201 20.0783 2.42344 20.8284 3.17359C21.5786 3.92373 22 4.94115 22 6.00201V11.002H2V6.00201Z" stroke="#4C4C4C" stroke-width="2" stroke-linecap="round" stroke-linejoin="round"/>
<path d="M18.5 16.502H15.5" stroke="#4C4C4C" stroke-width="2" stroke-linecap="round" stroke-linejoin="round"/>
<path d="M12 11.002H22V18.002C22 19.0629 21.5786 20.0803 20.8284 20.8304C20.0783 21.5806 19.0609 22.002 18 22.002H12V11.002Z" stroke="#4C4C4C" stroke-width="2" stroke-linecap="round" stroke-linejoin="round"/>
<path d="M12 11.002H2V18.002C2 19.0629 2.42143 20.0803 3.17157 20.8304C3.92172 21.5806 4.93913 22.002 6 22.002H12V11.002Z" stroke="#4C4C4C" stroke-width="2" stroke-linecap="round" stroke-linejoin="round"/>
<path d="M7 16.502L5.5 15.002M5.5 18.002L7 16.502L5.5 18.002ZM7 16.502L8.5 15.002L7 16.502ZM7 16.502L8.5 18.002L7 16.502Z" stroke="#4C4C4C" stroke-width="2" stroke-linecap="round" stroke-linejoin="round"/>
</svg>
