<svg width="28" height="22" viewBox="0 0 28 22" fill="none" xmlns="http://www.w3.org/2000/svg">
<path d="M24.1 11.9981H25.8C25.9 11.9981 25.9 11.8981 25.9 11.8981V10.3981C25.9 10.2981 26 10.2981 26 10.2981H27.6C27.7 10.2981 27.7 10.1981 27.7 10.1981V8.49814C27.7 8.39814 27.6 8.39814 27.6 8.39814H26.1C26 8.39814 26 8.29814 26 8.29814V2.69814C26 2.59814 25.9 2.59814 25.9 2.59814H24C23.9 2.59814 23.9 2.69814 23.9 2.69814V5.99814C23.9 6.09814 23.8 6.09814 23.8 6.09814H22.2C22.1 6.09814 22.1 5.99814 22.1 5.99814V2.39814C22.1 2.29814 22.2 2.29814 22.2 2.29814H23.5C23.6 2.29814 23.6 2.19814 23.6 2.19814V0.498141C23.6 0.398141 23.5 0.398141 23.5 0.398141H20.2C20.1 0.398141 20.1 0.498141 20.1 0.498141V1.99814C20.1 2.09814 20 2.09814 20 2.09814H18.3C18.2 2.09814 18.2 2.19814 18.2 2.19814V5.99814C18.2 6.09814 18.1 6.09814 18.1 6.09814H16.4C16.3 6.09814 16.3 5.99814 16.3 5.99814V2.39814C16.3 2.29814 16.4 2.29814 16.4 2.29814H17.8C17.9 2.29814 17.9 2.19814 17.9 2.19814V0.398141C17.9 0.298141 17.8 0.298141 17.8 0.298141H14.4C14.3 0.298141 14.3 0.398141 14.3 0.398141V1.89814C14.3 1.99814 14.2 1.99814 14.2 1.99814H12.5C12.4 1.99814 12.4 2.09814 12.4 2.09814V5.99814C12.4 6.09814 12.3 6.09814 12.3 6.09814H8.29999C8.19999 6.09814 8.19999 6.19814 8.19999 6.19814V7.79814C8.09999 7.89814 8.09999 7.99814 7.99999 7.99814H6.29999C6.19999 7.99814 6.19999 8.09814 6.19999 8.09814V9.89814C6.19999 9.99814 6.09999 9.99814 6.09999 9.99814H4.39999C4.29999 9.99814 4.29999 10.0981 4.29999 10.0981V11.9981C4.29999 12.0981 4.19999 12.0981 4.19999 12.0981H2.39999C2.29999 12.0981 2.29999 12.1981 2.29999 12.1981V13.7981C2.29999 13.9981 2.19999 13.9981 2.19999 13.9981H0.399988C0.299988 13.9981 0.299988 14.0981 0.299988 14.0981V19.6981C0.299988 19.7981 0.399988 19.7981 0.399988 19.7981H2.09999C2.19999 19.7981 2.19999 19.8981 2.19999 19.8981V21.2981C2.19999 21.3981 2.29999 21.3981 2.29999 21.3981H11.7C11.8 21.3981 11.8 21.2981 11.8 21.2981V19.9981C11.8 19.8981 11.9 19.8981 11.9 19.8981H13.7C13.8 19.8981 13.8 19.9981 13.8 19.9981V21.4981C13.8 21.5981 13.9 21.5981 13.9 21.5981H17.4C17.5 21.5981 17.5 21.4981 17.5 21.4981V17.9981C17.5 17.8981 17.4 17.8981 17.4 17.8981H13.9C13.8 17.8981 13.8 17.7981 13.8 17.7981V14.1981C13.8 14.0981 13.9 14.0981 13.9 14.0981H15.5C15.6 14.0981 15.6 13.9981 15.6 13.9981V10.3981C15.6 10.2981 15.7 10.2981 15.7 10.2981H23.6C23.7 10.2981 23.7 10.3981 23.7 10.3981V11.8981C23.9 11.8981 24 11.9981 24.1 11.9981Z" fill="#378FF6"/>
<path d="M21.9 19.3981C21.9 19.6981 22.1 19.8981 22.4 19.8981H23.7C23.8 19.8981 23.8 19.9981 23.8 19.9981V21.5981C23.8 21.6981 23.7 21.6981 23.7 21.6981H20.2C20.1 21.6981 20.1 21.5981 20.1 21.5981V18.2981C20.1 18.1981 20 18.1981 20 18.1981H18.4C18.3 18.1981 18.3 18.0981 18.3 18.0981V16.3981C18.3 16.2981 18.4 16.2981 18.4 16.2981H20C20.1 16.2981 20.1 16.1981 20.1 16.1981V14.4981C20.1 14.3981 20.2 14.3981 20.2 14.3981C20.5 14.3981 21.4 14.3981 21.8 14.3981C21.9 14.3981 21.9 14.4981 21.9 14.4981C21.9 14.9981 21.9 18.1981 21.9 19.3981Z" fill="#378FF6"/>
<path d="M22.1 12.2981V13.6982C22.1 13.7982 22.2 13.7981 22.2 13.7981H23.6C23.7 13.7981 23.7 13.6982 23.7 13.6982V12.2981C23.7 12.1981 23.6 12.1982 23.6 12.1982H22.2L22.1 12.2981Z" fill="#378FF6"/>
</svg>
