<svg width="83" height="29" viewBox="0 0 83 29" fill="none" xmlns="http://www.w3.org/2000/svg">
<path d="M19.8 18.498L16.7 21.598C16.5 21.798 16.2 21.898 16 21.898H5.49998C5.19998 21.898 4.89998 22.198 4.89998 22.498V28.298C4.89998 28.598 4.59998 28.8981 4.29998 28.8981H1.19998C0.899978 28.8981 0.599976 28.598 0.599976 28.298V4.59805C0.599976 4.29805 0.699979 4.09805 0.899979 3.89805L2.59998 2.19805L4.19998 0.59805C4.39998 0.39805 4.69998 0.29805 4.89998 0.29805H15.9C16.2 0.29805 16.5 0.598049 16.5 0.898049V3.29805C16.5 3.59805 16.8 3.89805 17.1 3.89805H19.5C19.8 3.89805 20.1 4.19805 20.1 4.49805V17.798C20.1 17.998 20 18.298 19.8 18.498ZM15.7 16.498V5.49805C15.7 4.89805 15.2 4.49805 14.7 4.49805H5.89998C5.29998 4.49805 4.89998 4.99805 4.89998 5.49805V16.498C4.89998 17.098 5.39998 17.498 5.89998 17.498H14.7C15.3 17.598 15.7 17.098 15.7 16.498Z" fill="#141416"/>
<path d="M58.6 18.298H57.7C57.4 18.298 57.1 18.598 57.1 18.898V21.298C57.1 21.598 56.8 21.898 56.5 21.898H42.5C42.2 21.898 41.9 21.598 41.9 21.298V18.898C41.9 18.598 41.6 18.298 41.3 18.298H40.4C40.1 18.298 39.8 17.9981 39.8 17.698V4.49805C39.8 4.19805 40.1 3.89805 40.4 3.89805H41.3C41.6 3.89805 41.9 3.59805 41.9 3.29805V0.898049C41.9 0.598049 42.2 0.29805 42.5 0.29805H56.5C56.8 0.29805 57.1 0.598049 57.1 0.898049V3.29805C57.1 3.59805 57.4 3.89805 57.7 3.89805H58.6C58.9 3.89805 59.2 4.19805 59.2 4.49805V17.698C59.2 18.0981 58.9 18.298 58.6 18.298ZM54.9 16.598V5.59805C54.9 4.99805 54.4 4.59805 53.9 4.59805H45.1C44.5 4.59805 44.1 5.09805 44.1 5.59805V16.598C44.1 17.198 44.6 17.598 45.1 17.598H53.9C54.4 17.598 54.9 17.098 54.9 16.598Z" fill="#141416"/>
<path d="M82.2 25.098L78.6 28.698C78.5 28.798 78.3 28.898 78.2 28.898H65.7C65.4 28.898 65.1 28.598 65.1 28.298V25.198C65.1 24.898 65.4 24.598 65.7 24.598H77.5C77.8 24.598 78.1 24.298 78.1 23.998V22.498C78.1 22.198 77.8 21.898 77.5 21.898H65.5C65.3 21.898 65.1 21.798 65 21.598L63 18.398C62.9 18.298 62.9 18.198 62.9 18.098V4.39804C62.9 4.09804 63.2 3.79804 63.5 3.79804H64.4C64.7 3.79804 65 3.49804 65 3.19804V0.798044C65 0.498044 65.3 0.198044 65.6 0.198044H78.1C78.3 0.198044 78.4 0.298044 78.5 0.398044L82.1 3.59804C82.2 3.69804 82.3 3.89804 82.3 4.09804V24.598C82.4 24.798 82.3 24.998 82.2 25.098ZM78.4 16.998V5.19804C78.4 4.89804 78.1 4.59804 77.8 4.59804H68.2C67.9 4.59804 67.6 4.89804 67.6 5.19804V16.998C67.6 17.298 67.9 17.598 68.2 17.598H77.8C78.2 17.598 78.4 17.298 78.4 16.998Z" fill="#141416"/>
<path d="M26.7 0.198044H36C36.4 0.198044 36.8 0.598044 36.8 0.998044V3.99804C36.8 4.29804 36.5 4.59804 36.2 4.59804H28.8C28.5 4.59804 28.2 4.89804 28.2 5.19804V21.298C28.2 21.598 27.9 21.898 27.6 21.898H24.5C24.2 21.898 23.9 21.598 23.9 21.298V4.39804C23.9 4.09804 24.2 3.79804 24.5 3.79804H25.5C25.8 3.79804 26.1 3.49804 26.1 3.19804V0.798044C26.1 0.498044 26.4 0.198044 26.7 0.198044Z" fill="#141416"/>
</svg>
