<svg width="54" height="40" viewBox="0 0 54 40" fill="none" xmlns="http://www.w3.org/2000/svg">
<g clip-path="url(#clip0_2174_14826)">
<path d="M19.8591 31.1984V32.4158C19.8591 32.4853 19.7894 32.5549 19.7197 32.5549H18.4655C18.3958 32.5549 18.3262 32.4853 18.3262 32.4158V31.1984C18.3262 31.1288 18.3958 31.0593 18.4655 31.0593H19.6849C19.7894 31.094 19.8591 31.1288 19.8591 31.1984Z" fill="#378FF6"/>
<path d="M18.988 37.4943H20.2074C20.2771 37.4943 20.3467 37.5638 20.3467 37.6334V39.303C20.3467 39.3725 20.2771 39.4421 20.2074 39.4421H17.49C17.4203 39.4421 17.3506 39.3725 17.3506 39.303V36.416C17.3506 36.3464 17.2809 36.2769 17.2112 36.2769H15.9919C15.9222 36.2769 15.8525 36.2073 15.8525 36.1377V34.9204C15.8525 34.8508 15.9222 34.7812 15.9919 34.7812H17.2112C17.2809 34.7812 17.3506 34.7117 17.3506 34.6421V33.1464C17.3506 33.0769 17.4203 33.0073 17.49 33.0073H18.7442C18.8138 33.0073 18.8835 33.0769 18.8835 33.1464V37.3551C18.8487 37.4595 18.9183 37.4943 18.988 37.4943Z" fill="#378FF6"/>
<path d="M23.1337 28.0686V29.4251C23.1337 29.4947 23.064 29.5642 22.9944 29.5642H21.775C21.7053 29.5642 21.6356 29.6338 21.6356 29.7034V30.7816C21.6356 30.8512 21.566 30.9207 21.4963 30.9207H20.2421C20.1724 30.9207 20.1027 30.8512 20.1027 30.7816V30.1555C20.1027 30.086 20.0331 30.0164 19.9634 30.0164H13.5879C13.5182 30.0164 13.4486 30.086 13.4486 30.1555V32.7642C13.4486 32.799 13.4486 32.9034 13.3789 32.9034H12.0898C12.0202 32.9034 11.9505 32.9729 11.9505 33.0425V36.3816C11.9505 36.4512 12.0202 36.5207 12.0898 36.5207H14.8073C14.8769 36.5207 14.9466 36.5903 14.9466 36.6599V39.3729C14.9466 39.4425 14.8769 39.512 14.8073 39.512H12.055C11.9853 39.512 11.9156 39.4425 11.9156 39.3729V38.2599C11.9156 38.1903 11.846 38.1207 11.7763 38.1207H10.5569C10.4873 38.1207 10.4176 38.1903 10.4176 38.2599V39.3729C10.4176 39.4425 10.3479 39.512 10.2782 39.512H1.60339C1.53371 39.512 1.46403 39.4425 1.46403 39.3729V38.712C1.46403 38.6425 1.39436 38.5729 1.32468 38.5729H0.871777C0.802099 38.5729 0.732422 38.5034 0.732422 38.4338V34.2947C0.732422 34.2251 0.802099 34.1555 0.871777 34.1555H1.46403C1.53371 34.1555 1.60339 34.086 1.60339 34.0164V32.7642C1.60339 32.6947 1.67307 32.6251 1.74274 32.6251H2.9621C3.03178 32.6251 3.10145 32.5555 3.10145 32.486V31.2686C3.10145 31.199 3.17113 31.1294 3.24081 31.1294H4.46016C4.52984 31.1294 4.59952 31.0599 4.59952 30.9903V29.7381C4.59952 29.6686 4.6692 29.599 4.73887 29.599H5.92339C5.99307 29.599 6.06274 29.5294 6.06274 29.4599V28.2077C6.06274 28.1381 6.13242 28.0686 6.2021 28.0686H7.45629C7.52597 28.0686 7.59565 27.999 7.59565 27.9294V26.712C7.59565 26.6425 7.66533 26.5729 7.735 26.5729H10.4524C10.5221 26.5729 10.5918 26.5033 10.5918 26.4338V22.8512C10.5918 22.7816 10.6615 22.712 10.7311 22.712H12.1247C12.1944 22.712 12.264 22.6425 12.264 22.5729V21.3207C12.264 21.2512 12.3337 21.1816 12.4034 21.1816H15.2602C15.3298 21.1816 15.3995 21.2512 15.3995 21.3207V22.5729C15.3995 22.6425 15.3298 22.712 15.2602 22.712H13.7621C13.6924 22.712 13.6227 22.7816 13.6227 22.8512V25.9468C13.6227 26.0164 13.6924 26.086 13.7621 26.086H15.7479C15.8176 26.086 15.8873 26.0164 15.8873 25.9468V22.8512C15.8873 22.7816 15.9569 22.712 16.0266 22.712H17.1415C17.2111 22.712 17.2808 22.6425 17.2808 22.5729V21.3207C17.2808 21.2512 17.3505 21.1816 17.4202 21.1816H20.1376C20.2073 21.1816 20.2769 21.2512 20.2769 21.3207V22.5729C20.2769 22.6425 20.2073 22.712 20.1376 22.712H19.0227C18.9531 22.712 18.8834 22.7816 18.8834 22.8512V25.9468C18.8834 26.0164 18.9531 26.086 19.0227 26.086H20.3815C20.4511 26.086 20.5208 26.0164 20.5208 25.9468V23.0599C20.5208 22.9903 20.5905 22.9207 20.6602 22.9207H21.8795C21.9492 22.9207 22.0189 22.9903 22.0189 23.0599V27.8251C22.0189 27.8947 22.0886 27.9642 22.1582 27.9642H23.2382C23.0989 27.9642 23.1337 27.999 23.1337 28.0686Z" fill="#378FF6"/>
<path d="M33.5155 37.043V39.0256C33.5155 39.2343 33.3413 39.4083 33.1323 39.4083H29.9968C29.7878 39.4083 29.6136 39.2343 29.6136 39.0256V37.53C29.6136 37.3213 29.4742 37.1126 29.2304 37.1126H28.6381C28.4291 37.1126 28.2549 36.9735 28.2549 36.7648V21.7039C28.2549 21.4952 28.4291 21.3213 28.6381 21.3213H30.6239C30.833 21.3213 31.0071 21.4952 31.0071 21.7039V36.243C31.0071 36.4517 31.1813 36.6256 31.3904 36.6256H33.1323C33.3413 36.6604 33.5155 36.8343 33.5155 37.043Z" fill="#141416"/>
<path d="M38.463 24.0343H36.1985C36.0591 24.0343 35.9546 23.93 35.9546 23.7909V21.5996C35.9546 21.4604 36.0591 21.3561 36.1985 21.3561H38.463C38.6023 21.3561 38.7417 21.4604 38.7417 21.5996V23.7909C38.7068 23.93 38.6023 24.0343 38.463 24.0343Z" fill="#141416"/>
<path d="M38.463 39.4081H36.1985C36.0591 39.4081 35.9546 39.3037 35.9546 39.1646V25.9472C35.9546 25.8081 36.0591 25.7037 36.1985 25.7037H38.463C38.6023 25.7037 38.7417 25.8081 38.7417 25.9472V39.1646C38.7068 39.3037 38.6023 39.4081 38.463 39.4081Z" fill="#141416"/>
<path d="M53.4436 37.1126L51.2836 39.2691C51.2139 39.3387 51.1094 39.3735 51.0049 39.3735H42.8874C42.6784 39.3735 42.5042 39.2344 42.5042 39.0257V37.4604C42.5042 37.2517 42.3997 37.1126 42.0862 37.1126H41.5287C41.3197 37.1126 41.1455 36.9387 41.1455 36.73V21.7387C41.1455 21.53 41.3197 21.3561 41.5287 21.3561H43.5145C43.7236 21.3561 43.8978 21.53 43.8978 21.7387V25.3213C43.8978 25.53 44.072 25.7039 44.281 25.7039H51.7713C51.9803 25.7039 52.1545 25.843 52.1545 26.0865V27.5822C52.1545 27.7909 52.3287 27.9996 52.5378 27.9996H53.1649C53.3739 27.9996 53.5133 28.1735 53.5133 28.3822V36.9735C53.5481 37.0083 53.5132 37.043 53.4436 37.1126ZM50.7958 36.1387V28.9387C50.7958 28.6604 50.4823 28.417 50.0991 28.417H44.5249C44.2462 28.417 43.8978 28.73 43.8978 28.9387V36.1735C43.8978 36.3126 44.0023 36.6257 44.5249 36.6257H50.0991C50.5868 36.6604 50.7958 36.243 50.7958 36.1387Z" fill="#141416"/>
<path d="M12.9965 12.278L11.0455 14.2606C10.941 14.3997 10.7668 14.4345 10.5926 14.4345H3.90355C3.69452 14.4345 3.52032 14.6432 3.52032 14.8519V18.5389C3.52032 18.7476 3.34613 18.9215 3.1371 18.9215H1.15129C0.94226 18.9215 0.768066 18.7476 0.768066 18.5389V3.44322C0.768066 3.2693 0.837744 3.09539 0.94226 2.99104L2.02226 1.91278L2.99774 0.904084C3.1371 0.764954 3.31129 0.695389 3.48549 0.695389H11.4287C11.6377 0.695389 11.8119 0.869302 11.8119 1.078V2.57365C11.8119 2.78235 11.9861 2.95626 12.1952 2.95626H12.7526C12.9616 2.95626 13.1358 3.13017 13.1358 3.33887V11.8258C13.1706 11.9997 13.1358 12.1389 12.9965 12.278ZM10.4184 11.0606V4.0693C10.4184 3.72148 10.1397 3.40843 9.75645 3.40843H4.14742C3.79903 3.40843 3.48549 3.72148 3.48549 4.0693V11.0258C3.48549 11.3737 3.7642 11.6867 4.14742 11.6867H9.75645C10.1048 11.6867 10.4184 11.4084 10.4184 11.0606Z" fill="#141416"/>
<path d="M38.3234 12.1396H37.7311C37.5221 12.1396 37.3827 12.3483 37.3827 12.557V14.0527C37.3827 14.2613 37.1737 14.4005 36.9647 14.4005H28.046C27.8369 14.4005 27.6627 14.2613 27.6627 14.0527V12.5222C27.6627 12.3135 27.5234 12.1396 27.2795 12.1396H26.7221C26.5131 12.1396 26.3389 11.9657 26.3389 11.757V3.37439C26.3389 3.16569 26.5131 2.957 26.7221 2.957H27.2795C27.4885 2.957 27.6627 2.81787 27.6627 2.60917V1.11352C27.6627 0.904824 27.8369 0.730911 28.046 0.730911H36.9995C37.2085 0.730911 37.3827 0.904824 37.3827 1.11352V2.64395C37.3827 2.85265 37.5569 3.02656 37.766 3.02656H38.3582C38.5673 3.02656 38.7414 3.20048 38.7414 3.44395V11.8613C38.7066 12.0005 38.5324 12.1396 38.3234 12.1396ZM35.9543 11.0613V4.10482C35.9543 3.757 35.6756 3.44395 35.2924 3.44395H29.7182C29.3698 3.44395 29.0563 3.757 29.0563 4.10482V11.0613C29.0563 11.4092 29.335 11.6874 29.6834 11.6874H35.2576C35.6408 11.6874 35.9543 11.4092 35.9543 11.0613Z" fill="#141416"/>
<path d="M53.4774 16.5222L51.2129 18.7831C51.1432 18.8527 51.0387 18.8874 50.9342 18.8874H42.9561C42.7471 18.8874 42.5381 18.7483 42.5381 18.5396V16.557C42.5381 16.3483 42.7122 16.1744 42.9213 16.1744H50.4465C50.6555 16.1744 50.8645 16.0353 50.8645 15.8266V14.8874C50.8645 14.6787 50.6903 14.47 50.4813 14.47H43.4439C43.3045 14.47 43.2697 14.47 43.1303 14.3309L41.4581 12.6613C41.3884 12.5918 41.249 12.4527 41.249 12.3135V3.44395C41.249 3.23526 41.4581 3.02656 41.6671 3.02656H42.2942C42.5032 3.02656 42.6077 2.88743 42.6077 2.67874V1.11352C42.6077 0.904824 42.7122 0.730911 42.9213 0.730911H51.2129C51.3174 0.730911 51.3871 0.730911 51.4568 0.800476L53.5471 2.88743C53.6516 2.99178 53.6516 3.09613 53.6516 3.23526V16.3135C53.5471 16.3831 53.5471 16.4527 53.4774 16.5222ZM50.7948 11.3396V3.79178C50.7948 3.58309 50.6206 3.40917 50.4116 3.40917H44.3497C44.1406 3.40917 43.9316 3.5483 43.9316 3.79178V11.3396C43.9316 11.5483 44.1058 11.6874 44.3148 11.6874H50.4116C50.6206 11.6874 50.7948 11.5831 50.7948 11.3396Z" fill="#141416"/>
<path d="M17.421 0.695389H23.3784C23.6571 0.695389 23.901 0.938867 23.901 1.21713V3.02582C23.901 3.23452 23.7268 3.40843 23.5178 3.40843H18.7449C18.5358 3.40843 18.3616 3.58234 18.3616 3.79104V14.0171C18.3616 14.2258 18.1874 14.3997 17.9784 14.3997H15.9926C15.7836 14.3997 15.6094 14.2258 15.6094 14.0171V3.30408C15.6094 3.09539 15.7836 2.92148 15.9926 2.92148H16.6545C16.8636 2.92148 17.0378 2.74756 17.0378 2.50408V1.04321C17.0378 0.834519 17.212 0.695389 17.421 0.695389Z" fill="#141416"/>
</g>
<defs>
<clipPath id="clip0_2174_14826">
<rect width="54" height="40" fill="white"/>
</clipPath>
</defs>
</svg>
