<svg width="160" height="40" viewBox="0 0 160 40" fill="none" xmlns="http://www.w3.org/2000/svg">
<path d="M52.8001 27.5L49.7001 30.6C49.5001 30.8 49.2001 30.9 49.0001 30.9H38.5001C38.2001 30.9 37.9001 31.2 37.9001 31.5V37.3C37.9001 37.6 37.6001 37.9 37.3001 37.9H34.2001C33.9001 37.9 33.6001 37.6 33.6001 37.3V13.6C33.6001 13.3 33.7001 13.1 33.9001 12.9L35.6001 11.2L37.2001 9.6C37.4001 9.4 37.7001 9.3 37.9001 9.3H48.9001C49.2001 9.3 49.5001 9.6 49.5001 9.9V12.3C49.5001 12.6 49.8001 12.9 50.1001 12.9H52.5001C52.8001 12.9 53.1001 13.2 53.1001 13.5V26.8C53.1001 27 53.0001 27.3 52.8001 27.5ZM48.7001 25.5V14.5C48.7001 13.9 48.2001 13.5 47.7001 13.5H38.9001C38.3001 13.5 37.9001 14 37.9001 14.5V25.5C37.9001 26.1 38.4001 26.5 38.9001 26.5H47.7001C48.3001 26.6 48.7001 26.1 48.7001 25.5Z" fill="#141416"/>
<path d="M91.6 27.3H90.7C90.4 27.3 90.1 27.6 90.1 27.9V30.3C90.1 30.6 89.8 30.9 89.5 30.9H75.5C75.2 30.9 74.9 30.6 74.9 30.3V27.9C74.9 27.6 74.6 27.3 74.3 27.3H73.4C73.1 27.3 72.8 27 72.8 26.7V13.5C72.8 13.2 73.1 12.9 73.4 12.9H74.3C74.6 12.9 74.9 12.6 74.9 12.3V9.9C74.9 9.6 75.2 9.3 75.5 9.3H89.5C89.8 9.3 90.1 9.6 90.1 9.9V12.3C90.1 12.6 90.4 12.9 90.7 12.9H91.6C91.9 12.9 92.2 13.2 92.2 13.5V26.7C92.2 27.1 91.9 27.3 91.6 27.3ZM87.9 25.6V14.6C87.9 14 87.4 13.6 86.9 13.6H78.1C77.5 13.6 77.1 14.1 77.1 14.6V25.6C77.1 26.2 77.6 26.6 78.1 26.6H86.9C87.4 26.6 87.9 26.1 87.9 25.6Z" fill="#141416"/>
<path d="M115.2 34.1L111.6 37.7C111.5 37.8 111.3 37.9 111.2 37.9H98.7001C98.4001 37.9 98.1001 37.6 98.1001 37.3V34.2C98.1001 33.9 98.4001 33.6 98.7001 33.6H110.5C110.8 33.6 111.1 33.3 111.1 33V31.5C111.1 31.2 110.8 30.9 110.5 30.9H98.5001C98.3001 30.9 98.1001 30.8 98.0001 30.6L96.0001 27.4C95.9001 27.3 95.9001 27.2 95.9001 27.1V13.4C95.9001 13.1 96.2001 12.8 96.5001 12.8H97.4001C97.7001 12.8 98.0001 12.5 98.0001 12.2V9.8C98.0001 9.5 98.3001 9.2 98.6001 9.2H111.1C111.3 9.2 111.4 9.3 111.5 9.4L115.1 12.6C115.2 12.7 115.3 12.9 115.3 13.1V33.6C115.4 33.8 115.3 34 115.2 34.1ZM111.4 26V14.2C111.4 13.9 111.1 13.6 110.8 13.6H101.2C100.9 13.6 100.6 13.9 100.6 14.2V26C100.6 26.3 100.9 26.6 101.2 26.6H110.8C111.2 26.6 111.4 26.3 111.4 26Z" fill="#141416"/>
<path d="M59.7001 9.2H69.0001C69.4001 9.2 69.8001 9.6 69.8001 10V13C69.8001 13.3 69.5001 13.6 69.2001 13.6H61.8001C61.5001 13.6 61.2001 13.9 61.2001 14.2V30.3C61.2001 30.6 60.9001 30.9 60.6001 30.9H57.5001C57.2001 30.9 56.9001 30.6 56.9001 30.3V13.4C56.9001 13.1 57.2001 12.8 57.5001 12.8H58.5001C58.8001 12.8 59.1001 12.5 59.1001 12.2V9.8C59.1001 9.5 59.4001 9.2 59.7001 9.2Z" fill="#141416"/>
<path d="M158.8 27.4L155.5 30.6C155.4 30.7 155.2 30.8 155.1 30.8H142.3C142 30.8 141.7 30.5 141.7 30.2V27.8C141.7 27.5 141.4 27.2 141.1 27.2H140.1C139.8 27.2 139.5 26.9 139.5 26.6V2.8C139.5 2.5 139.8 2.2 140.1 2.2H143.2C143.5 2.2 143.8 2.5 143.8 2.8V8.5C143.8 8.8 144.1 9.1 144.4 9.1H156.2C156.5 9.1 156.8 9.4 156.8 9.7V12C156.8 12.3 157.1 12.6 157.4 12.6H158.4C158.7 12.6 159 12.9 159 13.2V26.9C159 27.2 158.9 27.3 158.8 27.4ZM154.7 25.9V14.2C154.7 13.9 154.4 13.6 154.1 13.6H144.5C144.2 13.6 143.9 13.9 143.9 14.2V26C143.9 26.3 144.2 26.6 144.5 26.6H154.1C154.4 26.5 154.7 26.3 154.7 25.9Z" fill="#141416"/>
<path d="M135.1 6.5H131.6C131.4 6.5 131.2 6.3 131.2 6.1V2.6C131.2 2.4 131.4 2.2 131.6 2.2H135.1C135.3 2.2 135.5 2.4 135.5 2.6V6.1C135.5 6.3 135.3 6.5 135.1 6.5ZM135.1 30.9H131.6C131.4 30.9 131.2 30.7 131.2 30.5V9.6C131.2 9.4 131.4 9.2 131.6 9.2H135.1C135.3 9.2 135.5 9.4 135.5 9.6V30.5C135.5 30.7 135.3 30.9 135.1 30.9Z" fill="#141416"/>
<path d="M127.5 27.1V30.2C127.5 30.5 127.2 30.8 126.9 30.8H122C121.7 30.8 121.4 30.5 121.4 30.2V27.9C121.4 27.6 121.1 27.3 120.8 27.3H119.9C119.6 27.3 119.3 27 119.3 26.7V2.8C119.3 2.5 119.6 2.2 119.9 2.2H123.1C123.4 2.2 123.7 2.5 123.7 2.8L123.6 25.9C123.6 26.2 123.9 26.5 124.2 26.5H127C127.2 26.5 127.5 26.8 127.5 27.1Z" fill="#141416"/>
<path d="M24.1 21.0001H25.8C25.9 21.0001 25.9 20.9001 25.9 20.9001V19.4001C25.9 19.3001 26 19.3001 26 19.3001H27.6C27.7001 19.3001 27.7001 19.2001 27.7001 19.2001V17.5001C27.7001 17.4001 27.6 17.4001 27.6 17.4001H26.1C26 17.4001 26 17.3001 26 17.3001V11.7001C26 11.6001 25.9 11.6001 25.9 11.6001H24C23.9 11.6001 23.9 11.7001 23.9 11.7001V15.0001C23.9 15.1001 23.8 15.1001 23.8 15.1001H22.2001C22.1 15.1001 22.1 15.0001 22.1 15.0001V11.4001C22.1 11.3001 22.2001 11.3001 22.2001 11.3001H23.5C23.6 11.3001 23.6 11.2001 23.6 11.2001V9.50009C23.6 9.40009 23.5 9.40009 23.5 9.40009H20.2001C20.1 9.40009 20.1 9.50009 20.1 9.50009V11.0001C20.1 11.1001 20 11.1001 20 11.1001H18.3C18.2 11.1001 18.2001 11.2001 18.2001 11.2001V15.0001C18.2001 15.1001 18.1 15.1001 18.1 15.1001H16.4C16.3 15.1001 16.3 15.0001 16.3 15.0001V11.4001C16.3 11.3001 16.4 11.3001 16.4 11.3001H17.8C17.9 11.3001 17.9 11.2001 17.9 11.2001V9.40009C17.9 9.30009 17.8 9.30009 17.8 9.30009H14.4C14.3 9.30009 14.3 9.40009 14.3 9.40009V10.9001C14.3 11.0001 14.2 11.0001 14.2 11.0001H12.5C12.4 11.0001 12.4 11.1001 12.4 11.1001V15.0001C12.4 15.1001 12.3 15.1001 12.3 15.1001H8.30005C8.20005 15.1001 8.20005 15.2001 8.20005 15.2001V16.8001C8.10005 16.9001 8.10005 17.0001 8.00005 17.0001H6.30005C6.20005 17.0001 6.20005 17.1001 6.20005 17.1001V18.9001C6.20005 19.0001 6.10005 19.0001 6.10005 19.0001H4.40005C4.30005 19.0001 4.30005 19.1001 4.30005 19.1001V21.0001C4.30005 21.1001 4.20005 21.1001 4.20005 21.1001H2.40005C2.30005 21.1001 2.30005 21.2001 2.30005 21.2001V22.8001C2.30005 23.0001 2.20005 23.0001 2.20005 23.0001H0.400049C0.300049 23.0001 0.300049 23.1001 0.300049 23.1001V28.7001C0.300049 28.8001 0.400049 28.8001 0.400049 28.8001H2.10005C2.20005 28.8001 2.20005 28.9001 2.20005 28.9001V30.3001C2.20005 30.4001 2.30005 30.4001 2.30005 30.4001H11.7C11.8 30.4001 11.8 30.3001 11.8 30.3001V29.0001C11.8 28.9001 11.9 28.9001 11.9 28.9001H13.7C13.8 28.9001 13.8 29.0001 13.8 29.0001V30.5001C13.8 30.6001 13.9 30.6001 13.9 30.6001H17.4C17.5 30.6001 17.5 30.5001 17.5 30.5001V27.0001C17.5 26.9001 17.4 26.9001 17.4 26.9001H13.9C13.8 26.9001 13.8 26.8001 13.8 26.8001V23.2001C13.8 23.1001 13.9 23.1001 13.9 23.1001H15.5C15.6 23.1001 15.6 23.0001 15.6 23.0001V19.4001C15.6 19.3001 15.7 19.3001 15.7 19.3001H23.6C23.7001 19.3001 23.7001 19.4001 23.7001 19.4001V20.9001C23.9001 20.9001 24 21.0001 24.1 21.0001Z" fill="#378FF6"/>
<path d="M21.9 28.4001C21.9 28.7001 22.1 28.9001 22.4 28.9001H23.7C23.8 28.9001 23.8 29.0001 23.8 29.0001V30.6001C23.8 30.7001 23.7 30.7001 23.7 30.7001H20.2C20.1 30.7001 20.1 30.6001 20.1 30.6001V27.3001C20.1 27.2001 20 27.2001 20 27.2001H18.4C18.3 27.2001 18.3 27.1001 18.3 27.1001V25.4001C18.3 25.3001 18.4 25.3001 18.4 25.3001H20C20.1 25.3001 20.1 25.2001 20.1 25.2001V23.5001C20.1 23.4001 20.2 23.4001 20.2 23.4001C20.5 23.4001 21.4 23.4001 21.8 23.4001C21.9 23.4001 21.9 23.5001 21.9 23.5001C21.9 24.0001 21.9 27.2001 21.9 28.4001Z" fill="#378FF6"/>
<path d="M22.1001 21.3001V22.7001C22.1001 22.8001 22.2001 22.8001 22.2001 22.8001H23.6001C23.7001 22.8001 23.7001 22.7001 23.7001 22.7001V21.3001C23.7001 21.2001 23.6001 21.2001 23.6001 21.2001H22.2001L22.1001 21.3001Z" fill="#378FF6"/>
</svg>
