<svg width="301" height="211" viewBox="0 0 301 211" fill="none" xmlns="http://www.w3.org/2000/svg">
<path d="M243.059 36.3505H34.7227C30.1393 36.3505 26.1115 40.3899 26.1115 44.9864V188.732C26.1115 193.329 30.1393 191.657 34.7227 191.657H242.503C247.086 191.657 251.114 193.329 251.114 188.732V44.9864C251.67 40.3899 247.642 36.3505 243.059 36.3505Z" fill="#D5DDEA"/>
<path d="M277.92 183.579V188.175C277.92 193.329 273.337 197.925 268.198 197.925H9.72234C4.58339 197.925 0 193.329 0 188.175V183.579H277.92Z" fill="#D5DDEA"/>
<path d="M165.558 183.579V185.25C165.558 188.175 163.335 190.961 159.863 190.961H117.501C114.585 190.961 111.807 188.732 111.807 185.25V183.579H165.558Z" fill="#E9EFF8"/>
<g filter="url(#filter0_d_334_185935)">
<path d="M226.808 55.1546V169.093C226.531 173.829 222.781 177.729 217.919 177.729H49.5841C44.584 177.729 40.6951 173.829 40.6951 169.093V55.1546C40.6951 50.4188 44.584 46.5187 49.5841 46.5187H218.058C223.058 46.5187 226.808 50.4188 226.808 55.1546Z" fill="url(#paint0_linear_334_185935)"/>
</g>
<path d="M50.8342 59.6116C52.5008 59.6116 53.8897 58.2188 53.8897 56.5473C53.8897 54.8758 52.5008 53.4829 50.8342 53.4829C49.1675 53.4829 47.7786 54.8758 47.7786 56.5473C47.7786 58.2188 49.1675 59.6116 50.8342 59.6116Z" fill="#D6DCE8"/>
<path d="M59.8619 59.6116C61.5286 59.6116 62.9175 58.2188 62.9175 56.5473C62.9175 54.8758 61.5286 53.4829 59.8619 53.4829C58.1952 53.4829 56.8063 54.8758 56.8063 56.5473C56.8063 58.2188 58.1952 59.6116 59.8619 59.6116Z" fill="#D6DCE8"/>
<path d="M69.1678 59.6116C70.8345 59.6116 72.2234 58.2188 72.2234 56.5473C72.2234 54.8758 70.8345 53.4829 69.1678 53.4829C67.5011 53.4829 66.1122 54.8758 66.1122 56.5473C66.1122 58.2188 67.5011 59.6116 69.1678 59.6116Z" fill="#F1F3F9"/>
<g filter="url(#filter1_d_334_185935)">
<path d="M245.975 36.0722V150.01C245.975 150.15 245.975 150.428 245.975 150.567C245.559 155.164 241.809 158.646 237.225 158.646H68.7509C63.7509 158.646 59.8619 154.746 59.8619 150.01V36.0722C59.8619 31.3364 63.7509 27.4363 68.7509 27.4363H237.225C242.225 27.4363 245.975 31.1971 245.975 36.0722Z" fill="url(#paint1_linear_334_185935)"/>
</g>
<path d="M70.001 40.5292C71.6677 40.5292 73.0566 39.1363 73.0566 37.4648C73.0566 35.7934 71.6677 34.4005 70.001 34.4005C68.3343 34.4005 66.9454 35.7934 66.9454 37.4648C66.9454 39.1363 68.3343 40.5292 70.001 40.5292Z" fill="#D6DCE8"/>
<path d="M79.029 40.5292C80.6957 40.5292 82.0846 39.1363 82.0846 37.4648C82.0846 35.7934 80.6957 34.4005 79.029 34.4005C77.3624 34.4005 75.9734 35.7934 75.9734 37.4648C75.9734 39.1363 77.3624 40.5292 79.029 40.5292Z" fill="#D6DCE8"/>
<path d="M88.3347 40.5292C90.0014 40.5292 91.3903 39.1363 91.3903 37.4648C91.3903 35.7934 90.0014 34.4005 88.3347 34.4005C86.668 34.4005 85.2791 35.7934 85.2791 37.4648C85.2791 39.1363 86.668 40.5292 88.3347 40.5292Z" fill="#F1F3F9"/>
<g filter="url(#filter2_d_334_185935)">
<path d="M265.697 133.574C265.42 138.31 261.67 142.21 256.808 142.21H88.4731C83.473 142.21 79.5841 138.31 79.5841 133.574V19.6359C79.5841 14.9001 83.473 11 88.4731 11H256.947C261.947 11 265.836 14.9001 265.836 19.6359V133.574H265.697Z" fill="url(#paint2_linear_334_185935)"/>
</g>
<path d="M89.7233 24.2322C91.39 24.2322 92.7789 22.8393 92.7789 21.1678C92.7789 19.4964 91.39 17.9642 89.7233 17.9642C88.0566 17.9642 86.6677 19.3571 86.6677 21.0286C86.6677 22.7 88.0566 24.2322 89.7233 24.2322Z" fill="#AAB2C5"/>
<path d="M98.7511 24.2322C100.418 24.2322 101.807 22.8393 101.807 21.1678C101.807 19.4964 100.418 17.9642 98.7511 17.9642C97.0844 17.9642 95.6955 19.3571 95.6955 21.0286C95.6955 22.7 97.0844 24.2322 98.7511 24.2322Z" fill="#AAB2C5"/>
<path d="M108.057 24.2322C109.723 24.2322 111.112 22.8393 111.112 21.1678C111.112 19.4964 109.723 17.9642 108.057 17.9642C106.39 17.9642 105.001 19.3571 105.001 21.0286C105.001 22.7 106.251 24.2322 108.057 24.2322Z" fill="#AAB2C5"/>
<path d="M160.891 62.3978C160.891 66.0463 157.942 69.0015 154.308 69.0015C150.673 69.0015 147.724 66.0463 147.724 62.3978C147.724 58.7493 150.673 55.794 154.308 55.794C157.942 55.794 160.891 58.7493 160.891 62.3978Z" fill="#AAB2C5" stroke="white"/>
<path d="M194.78 62.3978C194.78 66.0463 191.831 69.0015 188.197 69.0015C184.562 69.0015 181.613 66.0463 181.613 62.3978C181.613 58.7493 184.562 55.794 188.197 55.794C191.831 55.794 194.78 58.7493 194.78 62.3978Z" fill="#AAB2C5" stroke="white"/>
<path d="M186.113 98.8911H156.391C151.669 98.8911 149.03 93.5981 151.807 89.698C153.891 86.7729 156.53 84.405 159.585 82.5943C163.058 80.6442 167.085 79.5299 171.252 79.5299C176.252 79.5299 180.836 81.0621 184.725 83.7086C187.086 85.3801 189.169 87.3301 190.836 89.698C193.475 93.5981 190.836 98.8911 186.113 98.8911Z" fill="#D6DCE8" stroke="#D6DCE8" stroke-width="1.7035" stroke-miterlimit="10"/>
<path d="M181.669 98.8911H160.974C160.835 98.6125 160.835 98.3339 160.974 98.0553C162.502 93.7374 166.53 90.673 171.391 90.673C176.252 90.673 180.28 93.7374 181.807 98.0553C181.807 98.3339 181.808 98.6125 181.669 98.8911Z" fill="#AAB2C5"/>
<path d="M184.725 85.1015V86.2159C184.725 87.0516 184.03 87.6087 183.336 87.6087H161.113C160.28 87.6087 159.724 86.9123 159.724 86.2159V83.9872C163.197 82.0372 167.224 80.9229 171.391 80.9229C176.252 80.9229 180.836 82.4551 184.725 85.1015Z" fill="white"/>
<path d="M119.446 60.2999C119.446 63.0903 117.285 65.3226 114.585 65.3226C111.884 65.3226 109.724 63.0903 109.724 60.2999C109.724 58.1791 112.64 51.817 113.937 49.0265C114.153 48.4684 114.909 48.4684 115.233 49.0265C116.529 51.7053 119.446 58.0675 119.446 60.2999Z" fill="#D6DCE8"/>
<path d="M291.809 34.2613C294.031 36.3506 294.309 39.8329 292.226 42.2008C290.142 44.4294 286.67 44.708 284.309 42.6186C282.503 41.0865 279.448 33.8434 278.198 30.6398C277.92 30.0827 278.476 29.3862 279.17 29.5255C282.503 30.3612 290.004 32.5898 291.809 34.2613Z" fill="#D6DCE8"/>
<path d="M290.976 58.9153C292.642 61.5618 291.948 64.9047 289.309 66.5761C286.67 68.2476 283.337 67.5512 281.67 64.9047C280.42 62.9546 279.309 55.1545 278.892 51.6723C278.753 50.9758 279.587 50.5579 280.142 50.8365C283.059 52.6473 289.726 56.8259 290.976 58.9153Z" fill="#D6DCE8"/>
<path d="M108.335 72.8358C108.335 75.6263 106.174 77.8586 103.473 77.8586C100.773 77.8586 98.6122 75.6263 98.6122 72.8358C98.6122 70.7151 101.529 64.3529 102.825 61.5625C103.041 61.0044 103.797 61.0044 104.122 61.5625C105.418 64.3529 108.335 70.7151 108.335 72.8358Z" fill="#D6DCE8"/>
<path d="M243.55 98.6935H272.995C274.8 98.6935 276.467 99.3899 277.717 100.643L298.551 121.537C299.801 122.79 300.495 124.462 300.495 126.273V155.663C300.495 157.473 299.801 159.145 298.551 160.398L277.995 181.013C276.745 182.267 275.078 182.963 273.273 182.963H243.55C241.745 182.963 240.078 182.267 238.828 181.013L217.716 159.841C216.466 158.588 215.772 156.916 215.772 155.105V126.273C215.772 124.462 216.466 122.79 217.716 121.537L238.689 100.643C240.078 99.3899 241.745 98.6935 243.55 98.6935Z" fill="url(#paint3_linear_334_185935)"/>
<path d="M243.881 149.232C243.728 149.232 243.598 149.179 243.49 149.071C243.383 148.964 243.329 148.826 243.329 148.657V145.897H236.084C235.931 145.897 235.801 145.844 235.693 145.736C235.586 145.629 235.532 145.491 235.532 145.322V143.459C235.532 143.352 235.555 143.237 235.601 143.114C235.647 142.992 235.709 142.877 235.785 142.769L242.524 133.523C242.724 133.263 243.007 133.132 243.375 133.132H246.296C246.45 133.132 246.58 133.186 246.687 133.293C246.795 133.401 246.848 133.539 246.848 133.707V142.838H248.895C249.079 142.838 249.217 142.892 249.309 142.999C249.417 143.107 249.47 143.237 249.47 143.39V145.322C249.47 145.491 249.417 145.629 249.309 145.736C249.202 145.844 249.072 145.897 248.918 145.897H246.848V148.657C246.848 148.826 246.795 148.964 246.687 149.071C246.58 149.179 246.45 149.232 246.296 149.232H243.881ZM239.097 142.953H243.398V136.904L239.097 142.953ZM257.888 149.462C256.784 149.462 255.834 149.309 255.036 149.002C254.254 148.68 253.603 148.243 253.081 147.691C252.575 147.124 252.192 146.472 251.931 145.736C251.686 144.985 251.54 144.188 251.494 143.344C251.479 142.93 251.464 142.47 251.448 141.964C251.448 141.443 251.448 140.922 251.448 140.4C251.464 139.879 251.479 139.404 251.494 138.974C251.525 138.131 251.671 137.341 251.931 136.605C252.207 135.869 252.606 135.225 253.127 134.673C253.649 134.121 254.3 133.692 255.082 133.385C255.88 133.063 256.815 132.902 257.888 132.902C258.962 132.902 259.889 133.063 260.671 133.385C261.453 133.692 262.105 134.121 262.626 134.673C263.148 135.225 263.539 135.869 263.799 136.605C264.075 137.341 264.236 138.131 264.282 138.974C264.298 139.404 264.305 139.879 264.305 140.4C264.321 140.922 264.321 141.443 264.305 141.964C264.305 142.47 264.298 142.93 264.282 143.344C264.236 144.188 264.083 144.985 263.822 145.736C263.562 146.472 263.171 147.124 262.649 147.691C262.143 148.243 261.492 148.68 260.694 149.002C259.912 149.309 258.977 149.462 257.888 149.462ZM257.888 146.472C258.778 146.472 259.429 146.181 259.843 145.598C260.257 145.016 260.48 144.226 260.51 143.229C260.526 142.785 260.533 142.325 260.533 141.849C260.549 141.374 260.549 140.899 260.533 140.423C260.533 139.948 260.526 139.503 260.51 139.089C260.48 138.139 260.257 137.364 259.843 136.766C259.429 136.168 258.778 135.862 257.888 135.846C256.984 135.862 256.324 136.168 255.91 136.766C255.512 137.364 255.297 138.139 255.266 139.089C255.251 139.503 255.236 139.948 255.22 140.423C255.22 140.899 255.22 141.374 255.22 141.849C255.236 142.325 255.251 142.785 255.266 143.229C255.297 144.226 255.519 145.016 255.933 145.598C256.347 146.181 256.999 146.472 257.888 146.472ZM274.586 149.232C274.432 149.232 274.302 149.179 274.195 149.071C274.087 148.964 274.034 148.826 274.034 148.657V145.897H266.789C266.635 145.897 266.505 145.844 266.398 145.736C266.29 145.629 266.237 145.491 266.237 145.322V143.459C266.237 143.352 266.26 143.237 266.306 143.114C266.352 142.992 266.413 142.877 266.49 142.769L273.229 133.523C273.428 133.263 273.712 133.132 274.08 133.132H277.001C277.154 133.132 277.284 133.186 277.392 133.293C277.499 133.401 277.553 133.539 277.553 133.707V142.838H279.6C279.784 142.838 279.922 142.892 280.014 142.999C280.121 143.107 280.175 143.237 280.175 143.39V145.322C280.175 145.491 280.121 145.629 280.014 145.736C279.906 145.844 279.776 145.897 279.623 145.897H277.553V148.657C277.553 148.826 277.499 148.964 277.392 149.071C277.284 149.179 277.154 149.232 277.001 149.232H274.586ZM269.802 142.953H274.103V136.904L269.802 142.953Z" fill="white"/>
<defs>
<filter id="filter0_d_334_185935" x="18.6951" y="35.5187" width="230.113" height="175.21" filterUnits="userSpaceOnUse" color-interpolation-filters="sRGB">
<feFlood flood-opacity="0" result="BackgroundImageFix"/>
<feColorMatrix in="SourceAlpha" type="matrix" values="0 0 0 0 0 0 0 0 0 0 0 0 0 0 0 0 0 0 127 0" result="hardAlpha"/>
<feOffset dy="11"/>
<feGaussianBlur stdDeviation="11"/>
<feColorMatrix type="matrix" values="0 0 0 0 0.397708 0 0 0 0 0.47749 0 0 0 0 0.575 0 0 0 0.27 0"/>
<feBlend mode="normal" in2="BackgroundImageFix" result="effect1_dropShadow_334_185935"/>
<feBlend mode="normal" in="SourceGraphic" in2="effect1_dropShadow_334_185935" result="shape"/>
</filter>
<filter id="filter1_d_334_185935" x="37.8619" y="16.4363" width="230.113" height="175.21" filterUnits="userSpaceOnUse" color-interpolation-filters="sRGB">
<feFlood flood-opacity="0" result="BackgroundImageFix"/>
<feColorMatrix in="SourceAlpha" type="matrix" values="0 0 0 0 0 0 0 0 0 0 0 0 0 0 0 0 0 0 127 0" result="hardAlpha"/>
<feOffset dy="11"/>
<feGaussianBlur stdDeviation="11"/>
<feColorMatrix type="matrix" values="0 0 0 0 0.397708 0 0 0 0 0.47749 0 0 0 0 0.575 0 0 0 0.27 0"/>
<feBlend mode="normal" in2="BackgroundImageFix" result="effect1_dropShadow_334_185935"/>
<feBlend mode="normal" in="SourceGraphic" in2="effect1_dropShadow_334_185935" result="shape"/>
</filter>
<filter id="filter2_d_334_185935" x="57.5841" y="0" width="230.252" height="175.21" filterUnits="userSpaceOnUse" color-interpolation-filters="sRGB">
<feFlood flood-opacity="0" result="BackgroundImageFix"/>
<feColorMatrix in="SourceAlpha" type="matrix" values="0 0 0 0 0 0 0 0 0 0 0 0 0 0 0 0 0 0 127 0" result="hardAlpha"/>
<feOffset dy="11"/>
<feGaussianBlur stdDeviation="11"/>
<feColorMatrix type="matrix" values="0 0 0 0 0.397708 0 0 0 0 0.47749 0 0 0 0 0.575 0 0 0 0.27 0"/>
<feBlend mode="normal" in2="BackgroundImageFix" result="effect1_dropShadow_334_185935"/>
<feBlend mode="normal" in="SourceGraphic" in2="effect1_dropShadow_334_185935" result="shape"/>
</filter>
<linearGradient id="paint0_linear_334_185935" x1="133.691" y1="43.4837" x2="133.691" y2="179.143" gradientUnits="userSpaceOnUse">
<stop stop-color="#FDFEFF"/>
<stop offset="0.9964" stop-color="#ECF0F5"/>
</linearGradient>
<linearGradient id="paint1_linear_334_185935" x1="152.858" y1="24.4013" x2="152.858" y2="160.061" gradientUnits="userSpaceOnUse">
<stop stop-color="#FDFEFF"/>
<stop offset="0.9964" stop-color="#ECF0F5"/>
</linearGradient>
<linearGradient id="paint2_linear_334_185935" x1="172.65" y1="7.96499" x2="172.65" y2="143.624" gradientUnits="userSpaceOnUse">
<stop stop-color="#FDFEFF"/>
<stop offset="0.9964" stop-color="#ECF0F5"/>
</linearGradient>
<linearGradient id="paint3_linear_334_185935" x1="215.733" y1="140.837" x2="300.511" y2="140.837" gradientUnits="userSpaceOnUse">
<stop stop-color="#58A8F7"/>
<stop offset="1" stop-color="#0D87FF"/>
</linearGradient>
</defs>
</svg>
