<svg width="20" height="20" viewBox="0 0 20 20" fill="none" xmlns="http://www.w3.org/2000/svg">
<path fill-rule="evenodd" clip-rule="evenodd" d="M9.99999 0.83432C4.93749 0.83432 0.833328 4.93849 0.833328 10.001C0.833328 15.0635 4.93749 19.1677 9.99999 19.1677C15.0625 19.1677 19.1667 15.0635 19.1667 10.001C19.1667 4.93849 15.0625 0.83432 9.99999 0.83432ZM13.0892 8.09015C13.241 7.93298 13.325 7.72248 13.3231 7.50399C13.3212 7.28549 13.2335 7.07648 13.079 6.92197C12.9245 6.76746 12.7155 6.67982 12.497 6.67792C12.2785 6.67603 12.068 6.76002 11.9108 6.91182L9.99999 8.82265L8.08916 6.91182C8.01229 6.83223 7.92033 6.76874 7.81866 6.72507C7.71699 6.68139 7.60764 6.65841 7.49699 6.65744C7.38635 6.65648 7.27661 6.67757 7.1742 6.71947C7.07179 6.76137 6.97874 6.82325 6.9005 6.90149C6.82225 6.97973 6.76038 7.07278 6.71848 7.17519C6.67658 7.2776 6.65549 7.38734 6.65645 7.49799C6.65741 7.60864 6.6804 7.71799 6.72408 7.81966C6.76775 7.92133 6.83124 8.01328 6.91083 8.09015L8.82166 10.001L6.91083 11.9118C6.83124 11.9887 6.76775 12.0806 6.72408 12.1823C6.6804 12.284 6.65741 12.3933 6.65645 12.504C6.65549 12.6146 6.67658 12.7244 6.71848 12.8268C6.76038 12.9292 6.82225 13.0222 6.9005 13.1005C6.97874 13.1787 7.07179 13.2406 7.1742 13.2825C7.27661 13.3244 7.38635 13.3455 7.49699 13.3445C7.60764 13.3436 7.71699 13.3206 7.81866 13.2769C7.92033 13.2332 8.01229 13.1697 8.08916 13.0902L9.99999 11.1793L11.9108 13.0902C12.068 13.242 12.2785 13.3259 12.497 13.324C12.7155 13.3221 12.9245 13.2345 13.079 13.08C13.2335 12.9255 13.3212 12.7165 13.3231 12.498C13.325 12.2795 13.241 12.069 13.0892 11.9118L11.1783 10.001L13.0892 8.09015Z" fill="#696974"/>
</svg>
