<svg width="165" height="184" viewBox="0 0 165 184" fill="none" xmlns="http://www.w3.org/2000/svg">
<path d="M20.571 31.0365C22.3102 30.4679 23.2619 28.5888 22.6966 26.8394C22.1313 25.09 20.2631 24.1328 18.5238 24.7014C16.7845 25.27 15.8328 27.1491 16.3982 28.8985C16.9635 30.6479 18.8317 31.6051 20.571 31.0365Z" fill="#EAEEF9"/>
<path d="M26.838 19.8226C28.0207 19.436 28.6678 18.1582 28.2834 16.9686C27.899 15.779 26.6286 15.1281 25.4459 15.5148C24.2632 15.9014 23.6161 17.1792 24.0005 18.3688C24.3849 19.5584 25.6553 20.2093 26.838 19.8226Z" fill="#EAEEF9"/>
<path d="M136.358 31.6015C138.41 29.7153 138.553 26.513 136.678 24.4489C134.803 22.3848 131.619 22.2407 129.567 24.1269C127.515 26.0131 127.371 29.2155 129.247 31.2796C131.122 33.3436 134.306 33.4878 136.358 31.6015Z" fill="#EAEEF9"/>
<path d="M152.436 22.371C153.3 21.5768 153.36 20.2285 152.57 19.3594C151.781 18.4903 150.44 18.4296 149.576 19.2238C148.712 20.018 148.652 21.3664 149.441 22.2355C150.231 23.1046 151.571 23.1653 152.436 22.371Z" fill="#EAEEF9"/>
<path d="M26.3898 140.717C27.2539 139.923 27.3142 138.575 26.5246 137.706C25.735 136.837 24.3944 136.776 23.5304 137.57C22.6663 138.364 22.606 139.713 23.3956 140.582C24.1852 141.451 25.5258 141.511 26.3898 140.717Z" fill="#EAEEF9"/>
<path d="M79.8323 147.762C116.191 147.762 145.665 118.116 145.665 81.5462C145.665 44.9764 116.191 15.3308 79.8323 15.3308C43.4742 15.3308 14.0001 44.9764 14.0001 81.5462C14.0001 118.116 43.4742 147.762 79.8323 147.762Z" fill="#EAEEF9"/>
<g filter="url(#filter0_d_923_211561)">
<path d="M38.3382 72.8062L29.7283 36.0347C29.066 33.2369 30.788 30.5723 33.4372 29.9061L90.2623 16.3167L122.45 38.2996L142.584 119.17C143.246 121.968 141.524 124.633 138.875 125.299L60.4589 143.951C57.6773 144.617 55.0281 142.885 54.3658 140.221L37.6759 70.0084" fill="url(#paint0_linear_923_211561)"/>
</g>
<g filter="url(#filter1_d_923_211561)">
<path d="M137.55 70.275L107.217 147.815C106.157 150.479 103.243 151.679 100.594 150.613L26.0194 119.97C23.3702 118.904 22.1781 115.973 23.2378 113.308L63.373 14.1851C64.4326 11.5205 67.3467 10.3215 69.9959 11.3873L124.172 33.6367L137.55 70.275Z" fill="url(#paint1_linear_923_211561)"/>
</g>
<g filter="url(#filter2_d_923_211561)">
<path d="M129.735 132.893C129.735 135.691 127.483 137.956 124.701 137.956H44.1661C41.3845 137.956 39.1327 135.691 39.1327 132.893V25.7764C39.1327 22.9785 41.3845 20.7136 44.1661 20.7136H102.581L128.808 49.6245L129.338 98.1203L129.735 132.893Z" fill="url(#paint2_linear_923_211561)"/>
</g>
<path d="M114.9 107.313H66.5518C65.7571 107.313 65.0948 106.647 65.0948 105.848C65.0948 105.048 65.7571 104.382 66.5518 104.382H114.9C115.694 104.382 116.357 105.048 116.357 105.848C116.224 106.647 115.694 107.313 114.9 107.313Z" fill="#D6DCE8"/>
<path d="M60.5913 107.313H52.1139C51.3192 107.313 50.6569 106.647 50.6569 105.848C50.6569 105.048 51.3192 104.382 52.1139 104.382H60.5913C61.3861 104.382 62.0484 105.048 62.0484 105.848C62.0484 106.647 61.3861 107.313 60.5913 107.313Z" fill="#D6DCE8"/>
<path d="M114.767 94.1232H93.1761C92.3813 94.1232 91.7191 93.457 91.7191 92.6577C91.7191 91.8583 92.3813 91.1921 93.1761 91.1921H114.767C115.562 91.1921 116.224 91.8583 116.224 92.6577C116.092 93.5903 115.562 94.1232 114.767 94.1232Z" fill="#D6DCE8"/>
<path d="M84.0365 94.1232H52.5112C51.7164 94.1232 51.0541 93.457 51.0541 92.6577C51.0541 91.8583 51.7164 91.1921 52.5112 91.1921H84.0365C84.8313 91.1921 85.4936 91.8583 85.4936 92.6577C85.4936 93.5903 84.8313 94.1232 84.0365 94.1232Z" fill="#D6DCE8"/>
<path d="M115.164 81.0668H106.819C106.025 81.0668 105.362 80.4007 105.362 79.6013C105.362 78.8019 106.025 78.1357 106.819 78.1357H115.164C115.959 78.1357 116.621 78.8019 116.621 79.6013C116.621 80.4007 115.959 81.0668 115.164 81.0668Z" fill="#D6DCE8"/>
<path d="M99.0043 81.0668H52.9085C52.1137 81.0668 51.4514 80.4007 51.4514 79.6013C51.4514 78.8019 52.1137 78.1357 52.9085 78.1357H99.0043C99.7991 78.1357 100.461 78.8019 100.461 79.6013C100.461 80.4007 99.7991 81.0668 99.0043 81.0668Z" fill="#D6DCE8"/>
<path d="M78.3408 121.702H75.4267C74.632 121.702 73.9697 121.036 73.9697 120.236C73.9697 119.437 74.632 118.771 75.4267 118.771H78.3408C79.1356 118.771 79.7979 119.437 79.7979 120.236C79.6654 121.036 79.0031 121.702 78.3408 121.702Z" fill="#D6DCE8"/>
<path d="M70.1282 121.702H52.9085C52.1137 121.702 51.4514 121.036 51.4514 120.236C51.4514 119.437 52.1137 118.771 52.9085 118.771H69.9957C70.7905 118.771 71.4528 119.437 71.4528 120.236C71.5852 121.036 70.9229 121.702 70.1282 121.702Z" fill="#D6DCE8"/>
<path d="M115.562 68.0102H85.8907C85.0959 68.0102 84.4337 67.344 84.4337 66.5446C84.4337 65.7453 85.0959 65.0791 85.8907 65.0791H115.562C116.356 65.0791 117.019 65.7453 117.019 66.5446C117.019 67.344 116.356 68.0102 115.562 68.0102Z" fill="#D6DCE8"/>
<path d="M76.354 68.0102H53.3061C52.5113 68.0102 51.849 67.344 51.849 66.5446C51.849 65.7453 52.5113 65.0791 53.3061 65.0791H76.2215C77.0163 65.0791 77.6786 65.7453 77.6786 66.5446C77.6786 67.344 77.1487 68.0102 76.354 68.0102Z" fill="#D6DCE8"/>
<path d="M92.5139 38.4333H53.8358C52.7761 38.4333 51.9814 37.6339 51.9814 36.5681C51.9814 35.5023 52.7761 34.7029 53.8358 34.7029H92.5139C93.5736 34.7029 94.3684 35.5023 94.3684 36.5681C94.3684 37.5007 93.4411 38.4333 92.5139 38.4333Z" fill="#D6DCE8"/>
<path d="M68.5388 47.7595H53.8358C52.7761 47.7595 51.9814 46.9601 51.9814 45.8943C51.9814 44.8284 52.7761 44.0291 53.8358 44.0291H68.6713C69.7309 44.0291 70.5257 44.8284 70.5257 45.8943C70.3932 46.8269 69.5985 47.7595 68.5388 47.7595Z" fill="#D6DCE8"/>
<path d="M102.58 20.7136V43.6292C102.58 46.8267 105.362 49.4913 108.541 49.4913H128.807" fill="#D5DDEA"/>
<path d="M108.77 78.061C108.77 81.8244 108.143 85.2742 106.731 88.5672C103.595 96.7213 96.8523 102.994 88.5414 105.816C85.7188 106.757 82.7394 107.228 79.6032 107.228C63.4518 107.228 50.4365 94.2124 50.4365 78.061C50.4365 61.9095 63.4518 48.8943 79.6032 48.8943C95.7546 48.8943 108.77 62.0663 108.77 78.061Z" fill="url(#paint3_linear_923_211561)"/>
<!-- <path d="M92.1623 79.2601H94.2147C94.3354 79.2601 94.3354 79.1394 94.3354 79.1394V77.3284C94.3354 77.2077 94.4562 77.2077 94.4562 77.2077H96.3878C96.5086 77.2077 96.5086 77.087 96.5086 77.087V75.0346C96.5086 74.9138 96.3878 74.9138 96.3878 74.9138H94.5769C94.4562 74.9138 94.4562 74.7931 94.4562 74.7931V68.0323C94.4562 67.9115 94.3354 67.9115 94.3354 67.9115H92.0416C91.9209 67.9115 91.9209 68.0323 91.9209 68.0323V72.0163C91.9209 72.1371 91.8001 72.1371 91.8001 72.1371H89.8685C89.7477 72.1371 89.7477 72.0163 89.7477 72.0163V67.6701C89.7477 67.5494 89.8685 67.5494 89.8685 67.5494H91.4379C91.5587 67.5494 91.5587 67.4286 91.5587 67.4286V65.3762C91.5587 65.2555 91.4379 65.2555 91.4379 65.2555H87.4539C87.3331 65.2555 87.3331 65.3762 87.3331 65.3762V67.1872C87.3331 67.3079 87.2124 67.3079 87.2124 67.3079H85.16C85.0393 67.3079 85.0393 67.4286 85.0393 67.4286V72.0163C85.0393 72.1371 84.9185 72.1371 84.9185 72.1371H82.8661C82.7454 72.1371 82.7454 72.0163 82.7454 72.0163V67.6701C82.7454 67.5494 82.8661 67.5494 82.8661 67.5494H84.5564C84.6771 67.5494 84.6771 67.4286 84.6771 67.4286V65.2555C84.6771 65.1348 84.5564 65.1348 84.5564 65.1348H80.4516C80.3308 65.1348 80.3308 65.2555 80.3308 65.2555V67.0664C80.3308 67.1872 80.2101 67.1872 80.2101 67.1872H78.1577C78.037 67.1872 78.037 67.3079 78.037 67.3079V72.0163C78.037 72.1371 77.9162 72.1371 77.9162 72.1371H73.0871C72.9663 72.1371 72.9663 72.2578 72.9663 72.2578V74.1895C72.8456 74.3102 72.8456 74.4309 72.7249 74.4309H70.6725C70.5517 74.4309 70.5517 74.5517 70.5517 74.5517V76.7248C70.5517 76.8455 70.431 76.8455 70.431 76.8455H68.3786C68.2579 76.8455 68.2579 76.9662 68.2579 76.9662V79.2601C68.2579 79.3808 68.1372 79.3808 68.1372 79.3808H65.964C65.8433 79.3808 65.8433 79.5016 65.8433 79.5016V81.4332C65.8433 81.6747 65.7226 81.6747 65.7226 81.6747H63.5494C63.4287 81.6747 63.4287 81.7954 63.4287 81.7954V88.5563C63.4287 88.677 63.5494 88.677 63.5494 88.677H65.6018C65.7226 88.677 65.7226 88.7977 65.7226 88.7977V90.4879C65.7226 90.6087 65.8433 90.6087 65.8433 90.6087H77.1919C77.3126 90.6087 77.3126 90.4879 77.3126 90.4879V88.9185C77.3126 88.7977 77.4333 88.7977 77.4333 88.7977H79.6065C79.7272 88.7977 79.7272 88.9185 79.7272 88.9185V90.7294C79.7272 90.8501 79.8479 90.8501 79.8479 90.8501H84.0734C84.1942 90.8501 84.1942 90.7294 84.1942 90.7294V86.5039C84.1942 86.3831 84.0734 86.3831 84.0734 86.3831H79.8479C79.7272 86.3831 79.7272 86.2624 79.7272 86.2624V81.9162C79.7272 81.7954 79.8479 81.7954 79.8479 81.7954H81.7796C81.9003 81.7954 81.9003 81.6747 81.9003 81.6747V77.3284C81.9003 77.2077 82.021 77.2077 82.021 77.2077H91.5587C91.6794 77.2077 91.6794 77.3284 91.6794 77.3284V79.1394C91.9209 79.1394 92.0416 79.2601 92.1623 79.2601Z" fill="white"/> -->
<!-- <path d="M89.5065 88.1942C89.5065 88.5564 89.748 88.7978 90.1102 88.7978H91.6797C91.8004 88.7978 91.8004 88.9186 91.8004 88.9186V90.8502C91.8004 90.971 91.6797 90.971 91.6797 90.971H87.4541C87.3334 90.971 87.3334 90.8502 87.3334 90.8502V86.8662C87.3334 86.7454 87.2127 86.7454 87.2127 86.7454H85.281C85.1603 86.7454 85.1603 86.6247 85.1603 86.6247V84.5723C85.1603 84.4516 85.281 84.4516 85.281 84.4516H87.2127C87.3334 84.4516 87.3334 84.3308 87.3334 84.3308V82.2784C87.3334 82.1577 87.4541 82.1577 87.4541 82.1577C87.8163 82.1577 88.9029 82.1577 89.3858 82.1577C89.5065 82.1577 89.5065 82.2784 89.5065 82.2784C89.5065 82.8821 89.5065 86.7454 89.5065 88.1942Z" fill="white"/> -->
<!-- <path d="M89.748 79.6219V81.3122C89.748 81.4329 89.8687 81.4329 89.8687 81.4329H91.5589C91.6797 81.4329 91.6797 81.3122 91.6797 81.3122V79.6219C91.6797 79.5012 91.5589 79.5012 91.5589 79.5012H89.8687C89.8687 79.5012 89.748 79.6219 89.748 79.6219Z" fill="white"/> -->
<defs>
<filter id="filter0_d_923_211561" x="7.58618" y="5.31665" width="157.14" height="171.777" filterUnits="userSpaceOnUse" color-interpolation-filters="sRGB">
<feFlood flood-opacity="0" result="BackgroundImageFix"/>
<feColorMatrix in="SourceAlpha" type="matrix" values="0 0 0 0 0 0 0 0 0 0 0 0 0 0 0 0 0 0 127 0" result="hardAlpha"/>
<feOffset dy="11"/>
<feGaussianBlur stdDeviation="11"/>
<feColorMatrix type="matrix" values="0 0 0 0 0.397708 0 0 0 0 0.47749 0 0 0 0 0.575 0 0 0 0.27 0"/>
<feBlend mode="normal" in2="BackgroundImageFix" result="effect1_dropShadow_923_211561"/>
<feBlend mode="normal" in="SourceGraphic" in2="effect1_dropShadow_923_211561" result="shape"/>
</filter>
<filter id="filter1_d_923_211561" x="0.852722" y="0" width="158.697" height="184" filterUnits="userSpaceOnUse" color-interpolation-filters="sRGB">
<feFlood flood-opacity="0" result="BackgroundImageFix"/>
<feColorMatrix in="SourceAlpha" type="matrix" values="0 0 0 0 0 0 0 0 0 0 0 0 0 0 0 0 0 0 127 0" result="hardAlpha"/>
<feOffset dy="11"/>
<feGaussianBlur stdDeviation="11"/>
<feColorMatrix type="matrix" values="0 0 0 0 0.397708 0 0 0 0 0.47749 0 0 0 0 0.575 0 0 0 0.27 0"/>
<feBlend mode="normal" in2="BackgroundImageFix" result="effect1_dropShadow_923_211561"/>
<feBlend mode="normal" in="SourceGraphic" in2="effect1_dropShadow_923_211561" result="shape"/>
</filter>
<filter id="filter2_d_923_211561" x="17.1327" y="9.71362" width="134.602" height="161.242" filterUnits="userSpaceOnUse" color-interpolation-filters="sRGB">
<feFlood flood-opacity="0" result="BackgroundImageFix"/>
<feColorMatrix in="SourceAlpha" type="matrix" values="0 0 0 0 0 0 0 0 0 0 0 0 0 0 0 0 0 0 127 0" result="hardAlpha"/>
<feOffset dy="11"/>
<feGaussianBlur stdDeviation="11"/>
<feColorMatrix type="matrix" values="0 0 0 0 0.397708 0 0 0 0 0.47749 0 0 0 0 0.575 0 0 0 0.27 0"/>
<feBlend mode="normal" in2="BackgroundImageFix" result="effect1_dropShadow_923_211561"/>
<feBlend mode="normal" in="SourceGraphic" in2="effect1_dropShadow_923_211561" result="shape"/>
</filter>
<linearGradient id="paint0_linear_923_211561" x1="86.1191" y1="13.361" x2="86.1191" y2="145.472" gradientUnits="userSpaceOnUse">
<stop stop-color="#FDFEFF"/>
<stop offset="0.9964" stop-color="#ECF0F5"/>
</linearGradient>
<linearGradient id="paint1_linear_923_211561" x1="80.1641" y1="7.76167" x2="80.1641" y2="152.509" gradientUnits="userSpaceOnUse">
<stop stop-color="#FDFEFF"/>
<stop offset="0.9964" stop-color="#ECF0F5"/>
</linearGradient>
<linearGradient id="paint2_linear_923_211561" x1="84.4043" y1="18.0017" x2="84.4043" y2="139.22" gradientUnits="userSpaceOnUse">
<stop stop-color="#FDFEFF"/>
<stop offset="0.9964" stop-color="#ECF0F5"/>
</linearGradient>
<linearGradient id="paint3_linear_923_211561" x1="50.4098" y1="78.0673" x2="108.78" y2="78.0673" gradientUnits="userSpaceOnUse">
<stop stop-color="#58A8F7"/>
<stop offset="1" stop-color="#0D87FF"/>
</linearGradient>
</defs>
</svg>
