<svg width="19" height="20" viewBox="0 0 19 20" fill="none" xmlns="http://www.w3.org/2000/svg">
<path fill-rule="evenodd" clip-rule="evenodd" d="M9.50001 0.833344C4.43751 0.833344 0.333344 4.93751 0.333344 10C0.333344 15.0625 4.43751 19.1667 9.50001 19.1667C14.5625 19.1667 18.6667 15.0625 18.6667 10C18.6667 4.93751 14.5625 0.833344 9.50001 0.833344ZM10.3333 13.3333C10.3333 13.5544 10.2455 13.7663 10.0893 13.9226C9.93298 14.0789 9.72102 14.1667 9.50001 14.1667C9.279 14.1667 9.06703 14.0789 8.91075 13.9226C8.75447 13.7663 8.66668 13.5544 8.66668 13.3333V10.8333H6.16668C5.94566 10.8333 5.7337 10.7455 5.57742 10.5893C5.42114 10.433 5.33334 10.221 5.33334 10C5.33334 9.779 5.42114 9.56703 5.57742 9.41075C5.7337 9.25447 5.94566 9.16668 6.16668 9.16668H8.66668V6.66668C8.66668 6.44566 8.75447 6.2337 8.91075 6.07742C9.06703 5.92114 9.279 5.83334 9.50001 5.83334C9.72102 5.83334 9.93298 5.92114 10.0893 6.07742C10.2455 6.2337 10.3333 6.44566 10.3333 6.66668V9.16668H12.8333C13.0544 9.16668 13.2663 9.25447 13.4226 9.41075C13.5789 9.56703 13.6667 9.779 13.6667 10C13.6667 10.221 13.5789 10.433 13.4226 10.5893C13.2663 10.7455 13.0544 10.8333 12.8333 10.8333H10.3333V13.3333Z" fill="#4C4C4C"/>
</svg>
