<svg width="32" height="32" viewBox="0 0 32 32" fill="none" xmlns="http://www.w3.org/2000/svg">
<path d="M5.33337 5.33335V26.6667C5.33337 27.3739 5.61433 28.0522 6.11442 28.5523C6.61452 29.0524 7.2928 29.3334 8.00004 29.3334H24C24.7073 29.3334 25.3856 29.0524 25.8857 28.5523C26.3858 28.0522 26.6667 27.3739 26.6667 26.6667V11.1227C26.6667 10.7674 26.5956 10.4158 26.4578 10.0883C26.32 9.76092 26.1181 9.46434 25.864 9.21602L19.944 3.42669C19.4459 2.93956 18.7768 2.66677 18.08 2.66669H8.00004C7.2928 2.66669 6.61452 2.94764 6.11442 3.44774C5.61433 3.94783 5.33337 4.62611 5.33337 5.33335V5.33335Z" stroke="#378FF6" stroke-width="2.5" stroke-linecap="round" stroke-linejoin="round"/>
<path d="M18.6666 2.66669V8.00002C18.6666 8.70726 18.9476 9.38554 19.4477 9.88564C19.9478 10.3857 20.626 10.6667 21.3333 10.6667H26.6666" stroke="#378FF6" stroke-width="2.5" stroke-linecap="round" stroke-linejoin="round"/>
</svg>
