<svg width="16" height="16" viewBox="0 0 16 16" fill="none" xmlns="http://www.w3.org/2000/svg">
<path d="M7.38266 1.75501C7.59599 1.19234 8.40332 1.19234 8.61732 1.75501L9.99732 5.57767C10.094 5.83101 10.34 5.99967 10.6147 5.99967H14.006C14.6327 5.99967 14.906 6.77967 14.4133 7.16167L12 9.33301C11.8919 9.41611 11.8129 9.53132 11.7743 9.66211C11.7358 9.7929 11.7396 9.93255 11.7853 10.061L12.6667 13.7963C12.8813 14.3963 12.1867 14.9117 11.6613 14.5423L8.38332 12.4623C8.27106 12.3834 8.1372 12.3411 7.99999 12.3411C7.86278 12.3411 7.72891 12.3834 7.61666 12.4623L4.33866 14.5423C3.81399 14.9117 3.11866 14.3957 3.33332 13.7963L4.21466 10.061C4.26038 9.93255 4.26423 9.7929 4.22566 9.66211C4.1871 9.53132 4.10809 9.41611 3.99999 9.33301L1.58666 7.16167C1.09332 6.77967 1.36799 5.99967 1.99332 5.99967H5.38466C5.51818 6.00012 5.6487 5.96001 5.75893 5.88466C5.86917 5.8093 5.95393 5.70225 6.00199 5.57767L7.38199 1.75501H7.38266Z" stroke="#0B71EA" stroke-width="1.5" stroke-linecap="round" stroke-linejoin="round"/>
</svg>
