<svg width="20" height="20" viewBox="0 0 20 20" fill="none" xmlns="http://www.w3.org/2000/svg">
<path d="M18.3333 15.8333V7.5C18.3333 7.05797 18.1577 6.63405 17.8452 6.32149C17.5326 6.00893 17.1087 5.83333 16.6667 5.83333H11.03C10.7204 5.83332 10.417 5.74709 10.1536 5.5843C9.89031 5.42151 9.67754 5.18859 9.53916 4.91167L8.79416 3.42167C8.65571 3.14461 8.44281 2.91162 8.17932 2.74882C7.91584 2.58602 7.61221 2.49986 7.30249 2.5H3.33332C2.8913 2.5 2.46737 2.67559 2.15481 2.98816C1.84225 3.30072 1.66666 3.72464 1.66666 4.16667V15.8333C1.66666 16.2754 1.84225 16.6993 2.15481 17.0118C2.46737 17.3244 2.8913 17.5 3.33332 17.5H16.6667C17.1087 17.5 17.5326 17.3244 17.8452 17.0118C18.1577 16.6993 18.3333 16.2754 18.3333 15.8333Z" stroke="#378FF6" stroke-width="1.5" stroke-linecap="round" stroke-linejoin="round"/>
<path d="M10 11.6667H7.5M10 9.16675V11.6667V9.16675ZM10 11.6667V14.1667V11.6667ZM10 11.6667H12.5H10Z" stroke="#378FF6" stroke-width="1.5" stroke-linecap="round" stroke-linejoin="round"/>
</svg>
