<svg width="20" height="20" viewBox="0 0 20 20" fill="none" xmlns="http://www.w3.org/2000/svg">
<path d="M1.66666 4.99999C1.66666 4.55797 1.84225 4.13404 2.15481 3.82148C2.46737 3.50892 2.8913 3.33333 3.33332 3.33333H16.6667C17.1087 3.33333 17.5326 3.50892 17.8452 3.82148C18.1577 4.13404 18.3333 4.55797 18.3333 4.99999V15C18.3333 15.442 18.1577 15.8659 17.8452 16.1785C17.5326 16.4911 17.1087 16.6667 16.6667 16.6667H3.33332C2.8913 16.6667 2.46737 16.4911 2.15481 16.1785C1.84225 15.8659 1.66666 15.442 1.66666 15V4.99999Z" stroke="#0B71EA" stroke-width="1.5" stroke-linecap="round" stroke-linejoin="round"/>
<path d="M1.66666 6.66667L7.91749 11.6675C8.50856 12.1404 9.243 12.3981 9.99999 12.3981C10.757 12.3981 11.4914 12.1404 12.0825 11.6675L18.3333 6.66667" stroke="#0B71EA" stroke-width="1.5" stroke-linecap="round" stroke-linejoin="round"/>
</svg>
