<svg width="20" height="20" viewBox="0 0 20 20" fill="none" xmlns="http://www.w3.org/2000/svg">
<path d="M17.5 15.8333H7.5M2.5 4.16666H5.83333H2.5ZM17.5 4.16666H9.16667H17.5ZM2.5 9.99999H12.5H2.5ZM17.5 9.99999H15.8333H17.5ZM2.5 15.8333H4.16667H2.5Z" stroke="#9F9FA9" stroke-width="1.5" stroke-linecap="round" stroke-linejoin="round"/>
<path d="M7.50016 5.83333C8.42064 5.83333 9.16683 5.08714 9.16683 4.16667C9.16683 3.24619 8.42064 2.5 7.50016 2.5C6.57969 2.5 5.8335 3.24619 5.8335 4.16667C5.8335 5.08714 6.57969 5.83333 7.50016 5.83333Z" stroke="#9F9FA9" stroke-width="1.5" stroke-linecap="round" stroke-linejoin="round"/>
<path d="M14.1667 11.6667C15.0871 11.6667 15.8333 10.9205 15.8333 10C15.8333 9.07954 15.0871 8.33334 14.1667 8.33334C13.2462 8.33334 12.5 9.07954 12.5 10C12.5 10.9205 13.2462 11.6667 14.1667 11.6667Z" stroke="#9F9FA9" stroke-width="1.5" stroke-linecap="round" stroke-linejoin="round"/>
<path d="M5.83317 17.5C6.75365 17.5 7.49984 16.7538 7.49984 15.8333C7.49984 14.9128 6.75365 14.1667 5.83317 14.1667C4.9127 14.1667 4.1665 14.9128 4.1665 15.8333C4.1665 16.7538 4.9127 17.5 5.83317 17.5Z" stroke="#9F9FA9" stroke-width="1.5" stroke-linecap="round" stroke-linejoin="round"/>
</svg>
