<svg width="20" height="20" viewBox="0 0 20 20" fill="none" xmlns="http://www.w3.org/2000/svg">
<g clip-path="url(#clip0_243_224185)">
<path d="M1.66675 4.99996C1.66675 4.1159 2.01794 3.26806 2.64306 2.64294C3.26818 2.01782 4.11603 1.66663 5.00008 1.66663H15.0001C15.8841 1.66663 16.732 2.01782 17.3571 2.64294C17.9822 3.26806 18.3334 4.1159 18.3334 4.99996V15C18.3334 15.884 17.9822 16.7319 17.3571 17.357C16.732 17.9821 15.8841 18.3333 15.0001 18.3333H5.00008C4.11603 18.3333 3.26818 17.9821 2.64306 17.357C2.01794 16.7319 1.66675 15.884 1.66675 15V4.99996Z" stroke="#696974" stroke-width="1.5" stroke-linecap="round" stroke-linejoin="round"/>
<path d="M7.08333 9.16667C8.23393 9.16667 9.16667 8.23393 9.16667 7.08333C9.16667 5.93274 8.23393 5 7.08333 5C5.93274 5 5 5.93274 5 7.08333C5 8.23393 5.93274 9.16667 7.08333 9.16667Z" stroke="#696974" stroke-width="1.5" stroke-linecap="round" stroke-linejoin="round"/>
<path d="M12.105 10.5175L5 18.3333H15.1108C15.9655 18.3333 16.7851 17.9938 17.3895 17.3894C17.9938 16.7851 18.3333 15.9655 18.3333 15.1108V15C18.3333 14.6116 18.1875 14.4625 17.925 14.175L14.5667 10.5125C14.4101 10.3417 14.2198 10.2055 14.0076 10.1124C13.7955 10.0194 13.5664 9.97158 13.3347 9.97205C13.1031 9.97252 12.8741 10.0213 12.6624 10.1152C12.4507 10.2091 12.2608 10.3461 12.105 10.5175V10.5175Z" stroke="#696974" stroke-width="1.5" stroke-linecap="round" stroke-linejoin="round"/>
</g>
<defs>
<clipPath id="clip0_243_224185">
<rect width="20" height="20" fill="white"/>
</clipPath>
</defs>
</svg>
