<svg width="12" height="16" viewBox="0 0 12 16" fill="none" xmlns="http://www.w3.org/2000/svg">
<path fill-rule="evenodd" clip-rule="evenodd" d="M8.66683 1.3335C9.02045 1.3335 9.35959 1.47397 9.60964 1.72402C9.85969 1.97407 10.0002 2.31321 10.0002 2.66683C10.0002 3.02045 9.85969 3.35959 9.60964 3.60964C9.35959 3.85969 9.02045 4.00016 8.66683 4.00016C8.31321 4.00016 7.97407 3.85969 7.72402 3.60964C7.47397 3.35959 7.3335 3.02045 7.3335 2.66683C7.3335 2.31321 7.47397 1.97407 7.72402 1.72402C7.97407 1.47397 8.31321 1.3335 8.66683 1.3335Z" fill="#9F9FA9"/>
<path fill-rule="evenodd" clip-rule="evenodd" d="M8.66683 6.6665C9.02045 6.6665 9.35959 6.80698 9.60964 7.05703C9.85969 7.30708 10.0002 7.64622 10.0002 7.99984C10.0002 8.35346 9.85969 8.6926 9.60964 8.94265C9.35959 9.19269 9.02045 9.33317 8.66683 9.33317C8.31321 9.33317 7.97407 9.19269 7.72402 8.94265C7.47397 8.6926 7.3335 8.35346 7.3335 7.99984C7.3335 7.64622 7.47397 7.30708 7.72402 7.05703C7.97407 6.80698 8.31321 6.6665 8.66683 6.6665Z" fill="#9F9FA9"/>
<path fill-rule="evenodd" clip-rule="evenodd" d="M3.33333 12C3.68696 12 4.02609 12.1405 4.27614 12.3905C4.52619 12.6406 4.66667 12.9797 4.66667 13.3333C4.66667 13.687 4.52619 14.0261 4.27614 14.2761C4.02609 14.5262 3.68696 14.6667 3.33333 14.6667C2.97971 14.6667 2.64057 14.5262 2.39052 14.2761C2.14048 14.0261 2 13.687 2 13.3333C2 12.9797 2.14048 12.6406 2.39052 12.3905C2.64057 12.1405 2.97971 12 3.33333 12Z" fill="#9F9FA9"/>
<path fill-rule="evenodd" clip-rule="evenodd" d="M8.66683 12C9.02045 12 9.35959 12.1405 9.60964 12.3905C9.85969 12.6406 10.0002 12.9797 10.0002 13.3333C10.0002 13.687 9.85969 14.0261 9.60964 14.2761C9.35959 14.5262 9.02045 14.6667 8.66683 14.6667C8.31321 14.6667 7.97407 14.5262 7.72402 14.2761C7.47397 14.0261 7.3335 13.687 7.3335 13.3333C7.3335 12.9797 7.47397 12.6406 7.72402 12.3905C7.97407 12.1405 8.31321 12 8.66683 12Z" fill="#9F9FA9"/>
<path fill-rule="evenodd" clip-rule="evenodd" d="M3.33333 1.3335C3.68696 1.3335 4.02609 1.47397 4.27614 1.72402C4.52619 1.97407 4.66667 2.31321 4.66667 2.66683C4.66667 3.02045 4.52619 3.35959 4.27614 3.60964C4.02609 3.85969 3.68696 4.00016 3.33333 4.00016C2.97971 4.00016 2.64057 3.85969 2.39052 3.60964C2.14048 3.35959 2 3.02045 2 2.66683C2 2.31321 2.14048 1.97407 2.39052 1.72402C2.64057 1.47397 2.97971 1.3335 3.33333 1.3335Z" fill="#9F9FA9"/>
<path fill-rule="evenodd" clip-rule="evenodd" d="M3.33333 6.6665C3.68696 6.6665 4.02609 6.80698 4.27614 7.05703C4.52619 7.30708 4.66667 7.64622 4.66667 7.99984C4.66667 8.35346 4.52619 8.6926 4.27614 8.94265C4.02609 9.19269 3.68696 9.33317 3.33333 9.33317C2.97971 9.33317 2.64057 9.19269 2.39052 8.94265C2.14048 8.6926 2 8.35346 2 7.99984C2 7.64622 2.14048 7.30708 2.39052 7.05703C2.64057 6.80698 2.97971 6.6665 3.33333 6.6665Z" fill="#9F9FA9"/>
</svg>
