<svg width="24" height="24" viewBox="0 0 24 24" fill="none" xmlns="http://www.w3.org/2000/svg">
<path fill-rule="evenodd" clip-rule="evenodd" d="M20.0151 11.3406V14.789C20.0151 15.0759 20.0304 15.3331 20.0657 15.5647L20.669 16.8971C21.5259 18.2022 20.6241 20 19.0151 20H15.873C15.6958 20.686 15.3379 21.3189 14.8284 21.8284C14.0782 22.5786 13.0608 23 12 23C10.9391 23 9.92168 22.5786 9.17154 21.8284C8.662 21.3189 8.30412 20.686 8.12697 20H4.98507C3.37827 20 2.47207 18.2041 3.33109 16.8973L3.33175 16.8963L3.61793 16.4595C3.88796 16.0479 3.98507 15.5152 3.98507 14.79L3.9851 10.993C4.00673 7.89743 6.16895 5.28437 8.99996 4.35888V4C8.99996 3.20435 9.31603 2.44129 9.87864 1.87868C10.4413 1.31607 11.2043 1 12 1C12.7956 1 13.5587 1.31607 14.1213 1.87868C14.6763 2.43371 14.9914 3.18382 14.9998 3.96786C14.1175 4.40635 13.3996 5.12587 12.9632 6.00928C12.882 6.00532 12.8005 6.00322 12.7187 6.00301L11.2412 6H11.2393C8.41322 6.0005 6.00587 8.30755 5.98507 11.0037V14.79C5.98507 15.6447 5.88222 16.6538 5.2905 17.5561L5.0024 17.9958L5.00008 17.9996L8.99404 18L8.99996 18L9.00588 18H14.994L15 18L15.0059 18H18.9995L18.9989 17.9985L18.9982 17.9968L18.9972 17.9949L18.7096 17.5561C18.1195 16.6545 18.0151 15.6448 18.0151 14.789V12.385C18.7728 12.2103 19.4573 11.8443 20.0151 11.3406ZM11.2929 3.29289C11.4804 3.10536 11.7347 3 12 3C12.2652 3 12.5195 3.10536 12.7071 3.29289C12.8946 3.48043 13 3.73478 13 4H11C11 3.73478 11.1053 3.48043 11.2929 3.29289ZM13.4142 20.4142C13.5388 20.2895 13.6454 20.1501 13.732 20H10.2679C10.3546 20.1501 10.4611 20.2895 10.5857 20.4142C10.9608 20.7893 11.4695 21 12 21C12.5304 21 13.0391 20.7893 13.4142 20.4142Z" fill="#9F9FA9"/>
<path d="M17 11C18.6568 11 20 9.65685 20 8C20 6.34315 18.6568 5 17 5C15.3431 5 14 6.34315 14 8C14 9.65685 15.3431 11 17 11Z" fill="#FC5A5A"/>
</svg>
