<svg width="20" height="20" viewBox="0 0 20 20" fill="none" xmlns="http://www.w3.org/2000/svg">
<path d="M10 10C12.3012 10 14.1667 8.13452 14.1667 5.83334C14.1667 3.53215 12.3012 1.66667 10 1.66667C7.69882 1.66667 5.83334 3.53215 5.83334 5.83334C5.83334 8.13452 7.69882 10 10 10Z" stroke="#FCFCFC" stroke-width="1.5" stroke-linecap="round" stroke-linejoin="round"/>
<path d="M14.1667 18.3333H4.38834C4.15199 18.3334 3.91833 18.2832 3.70287 18.186C3.48742 18.0889 3.29509 17.947 3.13865 17.7698C2.98221 17.5927 2.86524 17.3843 2.79551 17.1584C2.72577 16.9326 2.70486 16.6945 2.73417 16.46L3.05917 13.8567C3.13475 13.2519 3.42868 12.6955 3.8857 12.2922C4.34271 11.8889 4.93132 11.6664 5.54084 11.6667H5.83334" stroke="#FCFCFC" stroke-width="1.5" stroke-linecap="round" stroke-linejoin="round"/>
<path d="M15.8333 10.8333V15.8333" stroke="#FCFCFC" stroke-width="1.5" stroke-linecap="round" stroke-linejoin="round"/>
<path d="M13.3333 13.3333H18.3333" stroke="#FCFCFC" stroke-width="1.5" stroke-linecap="round" stroke-linejoin="round"/>
</svg>
